<svg width="1440" height="527" viewBox="0 0 1440 527" fill="none" xmlns="http://www.w3.org/2000/svg">
<rect width="1440" height="527" fill="#8257E5"/>
<path d="M986.753 466.21C987.966 459.846 991.732 454.011 997.02 450.286" stroke="#04D361" stroke-width="0.779" stroke-miterlimit="10"/>
<path d="M986.589 468C986.817 462.686 988.868 449.893 993.719 441.885" stroke="#04D361" stroke-width="0.779" stroke-miterlimit="10"/>
<path d="M986.662 467.343C987.501 457.865 987.428 447.391 985.95 437.986" stroke="#04D361" stroke-width="0.779" stroke-miterlimit="10"/>
<path d="M997.793 447.811L997.793 447.811C997.746 447.894 997.699 447.977 997.652 448.061C996.993 449.226 996.334 450.389 995.522 451.489C995.735 451.418 995.96 451.332 996.194 451.238C996.312 451.191 996.434 451.141 996.558 451.091C996.815 450.986 997.08 450.878 997.331 450.784C997.704 450.645 998.091 450.52 998.452 450.467L998.452 450.467C1000.13 450.221 1001.83 450.288 1003.48 450.502L1003.48 450.502C1004.76 450.67 1006.04 450.923 1007.29 451.173C1007.7 451.254 1008.11 451.335 1008.51 451.412C1010.17 451.729 1011.8 451.992 1013.45 452.014L1013.45 452.014C1014.38 452.027 1015.38 451.905 1016.21 451.583C1017.05 451.261 1017.69 450.756 1018.02 450.019L1018.02 450.018C1018.56 448.812 1018 447.222 1016.88 446.287L1016.88 446.286C1015.77 445.353 1014.24 444.982 1012.67 444.83L1012.67 444.83C1012.09 444.774 1011.52 444.745 1010.93 444.715C1010.72 444.704 1010.5 444.693 1010.28 444.681C1009.47 444.635 1008.64 444.57 1007.81 444.413L1007.81 444.412C1007.32 444.317 1006.84 444.191 1006.37 444.065C1006.29 444.045 1006.22 444.025 1006.14 444.005C1005.75 443.898 1005.36 443.794 1004.98 443.706C1004.06 443.497 1003.21 443.391 1002.37 443.554L997.793 447.811ZM997.793 447.811L997.794 447.809M997.793 447.811L997.794 447.809M997.794 447.809C998.915 445.811 1000.36 443.945 1002.37 443.554L997.794 447.809Z" fill="#04D361" stroke="#04D361"/>
<path d="M993.107 443.007C993.732 442.484 994.324 441.836 994.937 441.143C995.017 441.053 995.096 440.963 995.176 440.872C995.913 440.036 996.687 439.157 997.547 438.472C999.904 436.588 1002.76 435.133 1005.84 434.895L993.107 443.007ZM993.107 443.007C993.138 442.827 993.185 442.618 993.249 442.381C993.468 441.575 993.856 440.547 994.3 439.485C994.973 437.877 995.75 436.246 996.223 435.253C996.375 434.934 996.496 434.681 996.572 434.515C998.131 431.13 1000.54 427.952 1003.94 426.999L1003.94 426.999C1005.38 426.595 1006.89 426.611 1008.46 426.751C1008.99 426.799 1009.55 426.862 1010.11 426.926C1011.15 427.047 1012.23 427.17 1013.27 427.2L1013.28 427.2C1013.78 427.212 1014.29 427.204 1014.79 427.196C1015.03 427.192 1015.27 427.188 1015.51 427.187C1016.24 427.182 1016.95 427.2 1017.65 427.304C1019.03 427.513 1020.35 428.134 1021 429.229L1021 429.23C1021.5 430.07 1021.53 431.097 1021.19 432.086C1020.84 433.077 1020.14 433.983 1019.26 434.541C1017.45 435.688 1015.12 435.77 1012.84 435.517C1012.18 435.444 1011.54 435.35 1010.9 435.254C1010.41 435.182 1009.91 435.109 1009.4 435.043C1008.23 434.895 1007.04 434.799 1005.84 434.894L993.107 443.007ZM993.085 443.594C993.085 443.594 993.085 443.593 993.085 443.592L993.085 443.594Z" fill="#04D361" stroke="#04D361"/>
<path d="M988.229 428.871L988.229 428.872C988.522 430.665 988.224 432.507 987.662 434.283C987.622 434.41 987.574 434.57 987.518 434.753C987.35 435.313 987.114 436.093 986.824 436.831C986.632 437.319 986.427 437.759 986.218 438.081C986.114 438.242 986.018 438.358 985.935 438.434C985.85 438.511 985.802 438.525 985.793 438.527L985.792 438.527C985.688 438.547 985.477 438.517 985.14 438.349C984.821 438.19 984.464 437.945 984.102 437.659C983.38 437.089 982.702 436.404 982.373 436.061C981.368 435.002 980.568 433.755 980.074 432.392L980.073 432.39C979.495 430.816 979.295 429.134 979.095 427.381C979.091 427.343 979.087 427.304 979.082 427.266C978.889 425.569 978.689 423.807 978.106 422.134L978.106 422.134C977.443 420.239 976.314 418.545 975.232 416.922C974.948 416.496 974.667 416.075 974.399 415.656C973.084 413.604 971.971 411.409 971.988 409.108C972.005 406.802 973.47 404.482 975.57 404.109L975.571 404.109C976.956 403.86 978.429 404.442 979.648 405.367L979.649 405.367C981.372 406.668 982.63 408.57 983.168 410.67C983.491 411.941 983.554 413.264 983.616 414.647L983.618 414.703C983.679 416.05 983.741 417.455 984.079 418.821C984.498 420.534 985.329 422.106 986.126 423.612C986.186 423.727 986.247 423.841 986.307 423.955C987.168 425.589 987.952 427.159 988.229 428.871Z" fill="#04D361" stroke="#04D361"/>
<path d="M986.57 466.448C985.95 458.075 983.798 448.615 979.121 441.648" stroke="#04D361" stroke-width="0.779" stroke-miterlimit="10"/>
<path d="M977.993 435.35L977.993 435.352C978.663 437.22 979.076 439.177 979.421 441.15L979.422 441.151C979.44 441.255 979.472 441.388 979.503 441.52C979.515 441.571 979.526 441.621 979.537 441.669C979.581 441.859 979.62 442.052 979.642 442.236C979.663 442.424 979.662 442.573 979.64 442.681C979.62 442.784 979.589 442.81 979.58 442.816L979.58 442.816C979.576 442.82 979.539 442.846 979.411 442.827C979.282 442.808 979.116 442.749 978.925 442.65C978.546 442.456 978.175 442.165 977.987 441.998C977.651 441.69 977.353 441.334 977.054 440.946C976.949 440.809 976.839 440.663 976.728 440.514C976.535 440.258 976.336 439.991 976.135 439.744L976.135 439.744C973.423 436.409 969.14 434.806 965.003 434.213C962.933 433.916 960.851 433.838 958.785 433.805C958.239 433.797 957.695 433.791 957.153 433.785C955.634 433.769 954.128 433.754 952.622 433.67L952.619 433.67C951.682 433.624 950.838 433.522 950.213 433.078C949.397 432.494 949.057 431.299 949.307 430.209C949.556 429.131 950.299 428.177 951.215 427.39L951.215 427.39C953.238 425.651 955.925 424.774 958.636 424.597C961.348 424.419 964.087 424.907 966.762 425.631L966.762 425.631C969.34 426.328 971.853 427.264 973.829 428.927C975.782 430.578 977.118 432.884 977.993 435.35Z" fill="#04D361" stroke="#04D361"/>
<path d="M986.397 467.343C986.033 460.038 982.75 452.916 977.443 447.893" stroke="#04D361" stroke-width="0.779" stroke-miterlimit="10"/>
<path d="M974.663 444.061C972.828 443.085 970.75 442.449 968.7 441.874L974.663 444.061ZM974.663 444.061C974.802 444.135 974.927 444.202 975.052 444.277L975.051 444.277L975.063 444.284C975.861 444.735 976.393 445.52 976.979 446.414C977.046 446.517 977.15 446.726 977.29 447.028C977.333 447.119 977.378 447.218 977.425 447.32C977.524 447.536 977.631 447.77 977.74 447.996C977.773 448.065 977.807 448.135 977.841 448.204C975.373 447.528 972.657 447.553 970.281 447.576L970.253 447.576C970.253 447.576 970.253 447.576 970.253 447.576M974.663 444.061L970.253 447.576M970.253 447.576C967.003 447.604 963.752 448.208 960.713 449.381L960.711 449.382C960.308 449.539 959.915 449.702 959.527 449.863C958.049 450.477 956.655 451.055 955.149 451.138C954.65 451.162 954.118 451.09 953.689 450.909C953.265 450.729 952.983 450.462 952.872 450.11C952.696 449.534 953 448.853 953.515 448.166L953.515 448.166M970.253 447.576L953.515 448.166M953.515 448.166L953.516 448.164M953.515 448.166L953.516 448.164M953.516 448.164C954.534 446.793 955.848 445.669 957.205 444.512M953.516 448.164L957.205 444.512M957.205 444.512C958.974 443.008 960.727 441.562 962.83 441.153L957.205 444.512ZM978.511 448.408C978.296 448.019 978.077 447.542 977.882 447.117C977.688 446.696 977.518 446.325 977.397 446.14C976.823 445.264 976.23 444.369 975.309 443.848C975.172 443.766 975.036 443.693 974.899 443.62L978.511 448.408ZM962.83 441.153C964.719 440.786 966.692 441.311 968.7 441.874L962.83 441.153Z" fill="#04D361" stroke="#04D361"/>
<path d="M1208.58 437.671L1208.58 437.672C1207.51 438.733 1206.19 439.346 1204.88 439.858C1204.56 439.984 1204.25 440.103 1203.94 440.22C1202.94 440.593 1201.99 440.952 1201.1 441.458C1198.6 442.89 1196.79 445.472 1195.7 448.246C1195.69 448.279 1195.68 448.312 1195.66 448.345C1195.25 449.391 1194.67 450.893 1194.34 452.367C1194.18 453.127 1194.08 453.857 1194.11 454.497C1194.14 455.139 1194.29 455.649 1194.57 456.014L1194.58 456.016C1195.21 456.851 1196.33 457.025 1197.71 456.796C1199.07 456.571 1200.51 455.983 1201.54 455.547L1201.54 455.547C1201.92 455.388 1202.31 455.221 1202.7 455.051C1204.7 454.177 1206.84 453.249 1209.06 453.153C1211.46 453.047 1213.71 453.914 1215.77 454.74L1215.82 454.763C1217.89 455.594 1219.91 456.403 1222.05 456.412C1224.19 456.421 1226.48 455.399 1227.45 453.506C1227.86 452.705 1228.03 451.806 1228.21 450.832C1228.24 450.655 1228.27 450.476 1228.31 450.294C1228.53 449.152 1228.83 447.932 1229.71 446.962L1229.71 446.962C1230.6 445.968 1231.79 445.568 1232.98 445.401C1233.84 445.281 1234.75 445.277 1235.61 445.273C1235.92 445.272 1236.22 445.27 1236.51 445.263L1236.51 445.263C1238.91 445.21 1241.38 444.563 1243.23 443.006L1243.23 443.005C1245.1 441.45 1246.19 438.872 1245.6 436.728L1245.6 436.728C1245.11 434.953 1243.63 433.687 1242.06 432.419L1242.05 432.418C1239.89 430.665 1237.62 428.992 1235.01 429.168C1234.08 429.235 1233.16 429.534 1232.17 429.856L1232.1 429.88C1231.11 430.204 1230.04 430.545 1228.94 430.585C1227.54 430.634 1226.28 430.207 1225.12 429.615C1224.24 429.165 1223.38 428.603 1222.57 428.068C1222.33 427.906 1222.08 427.746 1221.85 427.592C1219.76 426.246 1217.31 425.266 1215.2 426.28L1208.58 437.671ZM1208.58 437.671C1210.09 436.17 1210.77 434.087 1211.38 432.192M1208.58 437.671L1211.38 432.192M1211.38 432.192C1211.47 431.925 1211.55 431.661 1211.64 431.404M1211.38 432.192L1211.64 431.404M1211.64 431.404C1212.36 429.259 1213.38 427.159 1215.2 426.28L1211.64 431.404Z" fill="#04D361" stroke="#04D361"/>
<path d="M1194.62 456.072C1206.75 445.635 1220.91 438.723 1236.2 435.783" stroke="white" stroke-width="0.7047" stroke-miterlimit="10" stroke-linecap="round" stroke-linejoin="round"/>
<path d="M1206.62 440.02C1206.9 436.577 1206.25 432.989 1207.38 429.729C1209.4 423.921 1216.38 420.89 1218.13 415C1220.23 407.96 1213.83 400.774 1214.94 393.515C1215.41 390.456 1217.17 387.762 1218.26 384.868C1219.35 381.973 1219.64 378.348 1217.51 376.093C1215.29 373.737 1211.25 374.011 1208.6 375.892C1205.96 377.773 1204.44 380.823 1203.2 383.827C1201.96 386.831 1200.88 389.972 1198.79 392.465C1194.99 397.003 1188.15 398.994 1186.07 404.536C1183.96 410.179 1187.96 416.151 1188.67 422.132C1189.21 426.661 1187.83 431.172 1186.6 435.573C1185.38 439.974 1184.29 444.631 1185.41 449.05C1186.91 454.94 1192.21 458.693 1197.29 454.912C1202.31 451.196 1206.1 446.493 1206.62 440.02Z" fill="#04D361"/>
<path d="M1194.07 456.355C1192.05 435.335 1196.67 412.535 1207.45 394.382" stroke="white" stroke-width="1.1364" stroke-miterlimit="10" stroke-linecap="round" stroke-linejoin="round"/>
<path d="M1180.65 448.429C1178.43 445.297 1177.16 441.38 1174.15 438.997C1170.71 436.258 1165.93 436.23 1161.55 435.874C1157.17 435.518 1152.22 434.276 1150.19 430.368C1149.08 428.222 1149.08 425.675 1148.3 423.392C1147.44 420.881 1145.69 418.799 1144.46 416.452C1143.24 414.106 1142.59 411.12 1144.02 408.883C1145.46 406.618 1148.61 405.952 1151.19 406.682C1153.77 407.413 1155.89 409.23 1157.82 411.092C1159.76 412.955 1161.64 414.946 1164.02 416.169C1167.97 418.187 1172.66 417.813 1177.09 417.621C1181.52 417.438 1186.35 417.621 1189.78 420.452C1192.6 422.78 1193.89 426.442 1195.03 429.921C1196.69 434.897 1198.39 439.855 1200 444.85C1201 447.918 1202.9 452.62 1199.7 455.031C1194.08 459.277 1183.89 453.004 1180.65 448.429Z" fill="#04D361"/>
<path d="M1197.93 455.214C1190.89 438.851 1175.99 424.917 1158.15 418.772" stroke="white" stroke-width="0.8174" stroke-miterlimit="10" stroke-linecap="round" stroke-linejoin="round"/>
<path d="M792.359 454.462C794.374 451.458 795.541 447.605 798.249 445.404C801.359 442.893 805.635 443.222 809.574 443.176C813.505 443.14 817.945 442.254 819.805 438.456C820.827 436.374 820.836 433.799 821.556 431.543C822.34 429.069 823.927 427.097 825.049 424.814C826.161 422.531 826.763 419.563 825.514 417.198C824.237 414.806 821.419 413.902 819.103 414.45C816.787 414.998 814.872 416.678 813.131 418.413C811.389 420.148 809.684 422.02 807.532 423.079C803.976 424.832 799.781 424.102 795.805 423.581C791.83 423.07 787.498 422.905 784.407 425.508C781.863 427.653 780.687 431.26 779.62 434.684C778.097 439.588 776.538 444.473 775.051 449.395C774.14 452.426 772.398 457.028 775.243 459.704C780.231 464.433 789.413 458.845 792.359 454.462Z" fill="#04D361"/>
<path d="M776.82 460.05C783.258 444.035 796.717 431.059 812.748 426.156" stroke="white" stroke-width="0.7781" stroke-miterlimit="10" stroke-linecap="round" stroke-linejoin="round"/>
<path d="M767.994 446.053C767.775 442.884 768.286 439.588 767.383 436.584C765.769 431.242 760.17 428.457 758.766 423.042C757.088 416.568 762.213 409.957 761.328 403.274C760.954 400.461 759.541 397.987 758.665 395.32C757.79 392.654 757.562 389.321 759.267 387.249C761.054 385.075 764.282 385.331 766.407 387.066C768.523 388.801 769.744 391.604 770.738 394.362C771.723 397.119 772.599 400.014 774.267 402.306C777.313 406.479 782.793 408.305 784.453 413.409C786.149 418.605 782.939 424.092 782.374 429.598C781.945 433.771 783.048 437.917 784.033 441.962C785.018 446.007 785.884 450.289 784.982 454.362C783.787 459.777 779.538 463.228 775.471 459.758C771.45 456.334 768.413 452.006 767.994 446.053Z" fill="#04D361"/>
<path d="M778.042 461.073C779.656 441.743 775.954 420.769 767.328 404.068" stroke="white" stroke-width="0.9754" stroke-miterlimit="10" stroke-linecap="round" stroke-linejoin="round"/>
<path d="M716.2 430.594C715.461 433.762 716.993 437.588 719.41 439.962C721.826 442.345 724.963 443.45 727.945 443.715L735.75 446.29L736.144 445.982C736.144 445.982 736.144 445.982 736.144 445.982C735.083 444.624 733.691 443.998 732.25 443.679C731.211 443.449 730.102 443.371 729.067 443.299C728.696 443.274 728.335 443.248 727.99 443.217L727.989 443.217C725.094 442.96 722.076 441.889 719.761 439.606L719.76 439.606C717.432 437.318 715.998 433.662 716.687 430.708M716.2 430.594L716.687 430.708C716.687 430.708 716.687 430.708 716.687 430.708M716.2 430.594L716.687 430.707C716.687 430.707 716.687 430.707 716.687 430.708M716.2 430.594C716.811 427.991 718.735 426.275 720.568 424.713C723.112 422.54 725.984 420.266 729.404 420.75C730.608 420.919 731.789 421.423 732.968 421.927C734.217 422.46 735.464 422.993 736.735 423.125M716.687 430.708C717.256 428.286 719.047 426.666 720.892 425.094L720.893 425.093C723.468 422.894 726.171 420.798 729.334 421.245L729.335 421.246C730.472 421.405 731.598 421.886 732.8 422.399L732.877 422.432C734.079 422.945 735.36 423.485 736.684 423.622M736.684 423.622L736.735 423.125M736.684 423.622C738.356 423.795 739.862 423.318 741.244 422.61C742.292 422.072 743.303 421.382 744.267 420.724C744.562 420.523 744.851 420.325 745.137 420.135L745.138 420.134C747.618 418.475 750.559 417.326 753.176 418.879M736.684 423.622C736.684 423.622 736.684 423.622 736.684 423.622L736.735 423.125M736.735 423.125C739.451 423.406 741.749 421.837 743.967 420.323C744.266 420.119 744.563 419.916 744.86 419.719C747.358 418.048 750.541 416.733 753.431 418.449M753.176 418.879C753.175 418.879 753.175 418.879 753.175 418.879L753.431 418.449M753.176 418.879C754.306 419.554 755.207 420.636 755.943 421.94C756.679 423.243 757.235 424.739 757.686 426.203L757.686 426.204C757.8 426.568 757.911 426.939 758.024 427.313C758.812 429.923 759.656 432.719 761.47 434.811M753.176 418.879C753.176 418.879 753.176 418.879 753.176 418.879L753.431 418.449M753.431 418.449C755.893 419.92 757.252 423.097 758.164 426.056L761.47 434.811M761.47 434.811C762.758 436.303 764.34 437.222 765.927 438.015C766.315 438.209 766.701 438.394 767.083 438.578C768.288 439.156 769.456 439.718 770.544 440.473L770.545 440.474C773.646 442.62 775.913 446.293 777.298 450.165C777.316 450.216 777.335 450.268 777.353 450.321C777.866 451.759 778.607 453.839 779.036 455.867C779.258 456.918 779.391 457.934 779.371 458.825C779.35 459.722 779.173 460.441 778.826 460.944L778.824 460.946C778.065 462.054 776.711 462.2 775.027 461.783C773.367 461.372 771.613 460.462 770.353 459.792L770.353 459.791C769.9 459.552 769.442 459.301 768.98 459.048C767.98 458.501 766.96 457.943 765.94 457.461C764.44 456.751 762.885 456.175 761.275 455.993L761.275 455.993C758.391 455.666 755.701 456.658 753.24 457.622L753.167 457.65C750.699 458.617 748.292 459.56 745.703 459.396C743.11 459.232 740.254 457.675 738.985 454.937L761.47 434.811ZM761.47 434.811L761.848 434.484L761.469 434.81C761.469 434.811 761.47 434.811 761.47 434.811ZM770.118 460.233C769.654 459.987 769.189 459.732 768.723 459.478C766.271 458.136 763.793 456.781 761.218 456.489C758.474 456.179 755.893 457.119 753.422 458.087L753.303 458.134C750.87 459.087 748.372 460.066 745.671 459.895C742.927 459.722 739.89 458.078 738.531 455.147L770.118 460.233ZM770.118 460.233C772.626 461.566 777.34 463.995 779.237 461.228L770.118 460.233Z" fill="#04D361" stroke="#04D361"/>
<path d="M778.699 460.854C763.827 445.824 746.583 435.397 728.091 430.247" stroke="white" stroke-width="0.8986" stroke-miterlimit="10" stroke-linecap="round" stroke-linejoin="round"/>
<path d="M1204.85 188.597C1204.85 191.491 1202.5 193.838 1199.61 193.838C1196.72 193.838 1194.38 191.491 1194.38 188.597C1194.38 185.702 1196.72 183.355 1199.61 183.355C1202.49 183.355 1204.85 185.702 1204.85 188.597Z" stroke="#04D361" stroke-width="2" stroke-miterlimit="10" stroke-linecap="round" stroke-linejoin="round"/>
<path d="M1203.4 192.213L1207.09 195.919" stroke="#04D361" stroke-width="2" stroke-miterlimit="10" stroke-linecap="round" stroke-linejoin="round"/>
<path d="M1000.07 118L1005.57 123.514" stroke="#04D361" stroke-width="2" stroke-miterlimit="10" stroke-linecap="round" stroke-linejoin="round"/>
<path d="M1005.57 118L1000.07 123.514" stroke="#04D361" stroke-width="2" stroke-miterlimit="10" stroke-linecap="round" stroke-linejoin="round"/>
<path d="M1078.99 435.459L1084.5 440.974" stroke="#04D361" stroke-width="2" stroke-miterlimit="10" stroke-linecap="round" stroke-linejoin="round"/>
<path d="M1084.5 435.459L1078.99 440.974" stroke="#04D361" stroke-width="2" stroke-miterlimit="10" stroke-linecap="round" stroke-linejoin="round"/>
<path d="M729.535 362.386V370.184" stroke="#04D361" stroke-width="2" stroke-miterlimit="10" stroke-linecap="round" stroke-linejoin="round"/>
<path d="M733.439 366.285H725.642" stroke="#04D361" stroke-width="2" stroke-miterlimit="10" stroke-linecap="round" stroke-linejoin="round"/>
<path d="M712.599 302.515C712.599 305.126 710.484 307.254 707.867 307.254C705.259 307.254 703.134 305.135 703.134 302.515C703.134 299.903 705.25 297.776 707.867 297.776C710.484 297.785 712.599 299.903 712.599 302.515Z" stroke="#04D361" stroke-width="2" stroke-miterlimit="10" stroke-linecap="round" stroke-linejoin="round"/>
<path d="M909.027 417.134C909.027 419.746 906.911 421.873 904.294 421.873C901.687 421.873 899.562 419.755 899.562 417.134C899.562 414.523 901.677 412.395 904.294 412.395C906.911 412.404 909.027 414.523 909.027 417.134Z" stroke="#04D361" stroke-width="2" stroke-miterlimit="10" stroke-linecap="round" stroke-linejoin="round"/>
<path d="M1221.34 331.786C1221.34 334.398 1219.22 336.525 1216.61 336.525C1214 336.525 1211.87 334.407 1211.87 331.786C1211.87 329.175 1213.99 327.047 1216.61 327.047C1219.22 327.056 1221.34 329.175 1221.34 331.786Z" stroke="#04D361" stroke-width="2" stroke-miterlimit="10" stroke-linecap="round" stroke-linejoin="round"/>
<path d="M683.928 219.464C683.928 220.137 683.384 220.68 682.714 220.68C682.044 220.68 681.5 220.137 681.5 219.464C681.5 218.792 682.044 218.248 682.714 218.248C683.384 218.248 683.928 218.792 683.928 219.464Z" fill="#9871F5" stroke="#9871F5"/>
<path d="M695.901 219.464C695.901 220.137 695.357 220.68 694.687 220.68C694.017 220.68 693.473 220.137 693.473 219.464C693.473 218.792 694.017 218.248 694.687 218.248C695.357 218.248 695.901 218.792 695.901 219.464Z" fill="#9871F5" stroke="#9871F5"/>
<path d="M707.864 219.464C707.864 220.137 707.32 220.68 706.65 220.68C705.981 220.68 705.436 220.137 705.436 219.464C705.436 218.792 705.981 218.248 706.65 218.248C707.32 218.248 707.864 218.792 707.864 219.464Z" fill="#9871F5" stroke="#9871F5"/>
<path d="M719.837 219.464C719.837 220.137 719.293 220.68 718.623 220.68C717.953 220.68 717.409 220.137 717.409 219.464C717.409 218.792 717.953 218.248 718.623 218.248C719.293 218.248 719.837 218.792 719.837 219.464Z" fill="#9871F5" stroke="#9871F5"/>
<path d="M731.801 219.464C731.801 220.137 731.256 220.68 730.587 220.68C729.917 220.68 729.373 220.137 729.373 219.464C729.373 218.792 729.917 218.248 730.587 218.248C731.256 218.248 731.801 218.792 731.801 219.464Z" fill="#9871F5" stroke="#9871F5"/>
<path d="M743.773 219.464C743.773 220.137 743.229 220.68 742.559 220.68C741.889 220.68 741.345 220.137 741.345 219.464C741.345 218.792 741.889 218.248 742.559 218.248C743.229 218.248 743.773 218.792 743.773 219.464Z" fill="#9871F5" stroke="#9871F5"/>
<path d="M683.928 231.444C683.928 232.117 683.384 232.66 682.714 232.66C682.044 232.66 681.5 232.117 681.5 231.444C681.5 230.772 682.044 230.228 682.714 230.228C683.384 230.228 683.928 230.772 683.928 231.444Z" fill="#9871F5" stroke="#9871F5"/>
<path d="M695.901 231.444C695.901 232.117 695.357 232.66 694.687 232.66C694.017 232.66 693.473 232.117 693.473 231.444C693.473 230.772 694.017 230.228 694.687 230.228C695.357 230.228 695.901 230.772 695.901 231.444Z" fill="#9871F5" stroke="#9871F5"/>
<path d="M707.864 231.444C707.864 232.117 707.32 232.66 706.65 232.66C705.981 232.66 705.436 232.117 705.436 231.444C705.436 230.772 705.981 230.228 706.65 230.228C707.32 230.228 707.864 230.772 707.864 231.444Z" fill="#9871F5" stroke="#9871F5"/>
<path d="M719.837 231.444C719.837 232.117 719.293 232.66 718.623 232.66C717.953 232.66 717.409 232.117 717.409 231.444C717.409 230.772 717.953 230.228 718.623 230.228C719.293 230.228 719.837 230.772 719.837 231.444Z" fill="#9871F5" stroke="#9871F5"/>
<path d="M731.801 231.444C731.801 232.117 731.256 232.66 730.587 232.66C729.917 232.66 729.373 232.117 729.373 231.444C729.373 230.772 729.917 230.228 730.587 230.228C731.256 230.228 731.801 230.772 731.801 231.444Z" fill="#9871F5" stroke="#9871F5"/>
<path d="M743.773 231.444C743.773 232.117 743.229 232.66 742.559 232.66C741.889 232.66 741.345 232.117 741.345 231.444C741.345 230.772 741.889 230.228 742.559 230.228C743.229 230.228 743.773 230.772 743.773 231.444Z" fill="#9871F5" stroke="#9871F5"/>
<path d="M683.928 243.433C683.928 244.106 683.384 244.649 682.714 244.649C682.044 244.649 681.5 244.106 681.5 243.433C681.5 242.761 682.044 242.217 682.714 242.217C683.384 242.217 683.928 242.761 683.928 243.433Z" fill="#9871F5" stroke="#9871F5"/>
<path d="M695.901 243.433C695.901 244.106 695.357 244.649 694.687 244.649C694.017 244.649 693.473 244.106 693.473 243.433C693.473 242.761 694.017 242.217 694.687 242.217C695.357 242.217 695.901 242.761 695.901 243.433Z" fill="#9871F5" stroke="#9871F5"/>
<path d="M707.864 243.433C707.864 244.106 707.32 244.649 706.65 244.649C705.981 244.649 705.436 244.106 705.436 243.433C705.436 242.761 705.981 242.217 706.65 242.217C707.32 242.217 707.864 242.761 707.864 243.433Z" fill="#9871F5" stroke="#9871F5"/>
<path d="M719.837 243.433C719.837 244.106 719.293 244.649 718.623 244.649C717.953 244.649 717.409 244.106 717.409 243.433C717.409 242.761 717.953 242.217 718.623 242.217C719.293 242.217 719.837 242.761 719.837 243.433Z" fill="#9871F5" stroke="#9871F5"/>
<path d="M731.801 243.433C731.801 244.106 731.256 244.649 730.587 244.649C729.917 244.649 729.373 244.106 729.373 243.433C729.373 242.761 729.917 242.217 730.587 242.217C731.256 242.217 731.801 242.761 731.801 243.433Z" fill="#9871F5" stroke="#9871F5"/>
<path d="M743.773 243.433C743.773 244.106 743.229 244.649 742.559 244.649C741.889 244.649 741.345 244.106 741.345 243.433C741.345 242.761 741.889 242.217 742.559 242.217C743.229 242.217 743.773 242.761 743.773 243.433Z" fill="#9871F5" stroke="#9871F5"/>
<path d="M683.928 255.413C683.928 256.086 683.384 256.629 682.714 256.629C682.044 256.629 681.5 256.086 681.5 255.413C681.5 254.741 682.044 254.197 682.714 254.197C683.384 254.197 683.928 254.741 683.928 255.413Z" fill="#9871F5" stroke="#9871F5"/>
<path d="M695.901 255.413C695.901 256.086 695.357 256.629 694.687 256.629C694.017 256.629 693.473 256.086 693.473 255.413C693.473 254.741 694.017 254.197 694.687 254.197C695.357 254.197 695.901 254.741 695.901 255.413Z" fill="#9871F5" stroke="#9871F5"/>
<path d="M707.864 255.413C707.864 256.086 707.32 256.629 706.65 256.629C705.981 256.629 705.436 256.086 705.436 255.413C705.436 254.741 705.981 254.197 706.65 254.197C707.32 254.197 707.864 254.741 707.864 255.413Z" fill="#9871F5" stroke="#9871F5"/>
<path d="M719.837 255.413C719.837 256.086 719.293 256.629 718.623 256.629C717.953 256.629 717.409 256.086 717.409 255.413C717.409 254.741 717.953 254.197 718.623 254.197C719.293 254.197 719.837 254.741 719.837 255.413Z" fill="#9871F5" stroke="#9871F5"/>
<path d="M731.801 255.413C731.801 256.086 731.256 256.629 730.587 256.629C729.917 256.629 729.373 256.086 729.373 255.413C729.373 254.741 729.917 254.197 730.587 254.197C731.256 254.197 731.801 254.741 731.801 255.413Z" fill="#9871F5" stroke="#9871F5"/>
<path d="M743.773 255.413C743.773 256.086 743.229 256.629 742.559 256.629C741.889 256.629 741.345 256.086 741.345 255.413C741.345 254.741 741.889 254.197 742.559 254.197C743.229 254.197 743.773 254.741 743.773 255.413Z" fill="#9871F5" stroke="#9871F5"/>
<path d="M868.624 445.189C868.624 445.862 868.08 446.406 867.41 446.406C866.74 446.406 866.196 445.862 866.196 445.189C866.196 444.517 866.74 443.973 867.41 443.973C868.08 443.973 868.624 444.517 868.624 445.189Z" fill="#9871F5" stroke="#9871F5"/>
<path d="M880.596 445.189C880.596 445.862 880.052 446.406 879.382 446.406C878.713 446.406 878.168 445.862 878.168 445.189C878.168 444.517 878.713 443.973 879.382 443.973C880.052 443.973 880.596 444.517 880.596 445.189Z" fill="#9871F5" stroke="#9871F5"/>
<path d="M892.56 445.189C892.56 445.862 892.016 446.406 891.346 446.406C890.676 446.406 890.132 445.862 890.132 445.189C890.132 444.517 890.676 443.973 891.346 443.973C892.016 443.973 892.56 444.517 892.56 445.189Z" fill="#9871F5" stroke="#9871F5"/>
<path d="M904.533 445.189C904.533 445.862 903.988 446.406 903.319 446.406C902.649 446.406 902.105 445.862 902.105 445.189C902.105 444.517 902.649 443.973 903.319 443.973C903.988 443.973 904.533 444.517 904.533 445.189Z" fill="#9871F5" stroke="#9871F5"/>
<path d="M916.496 445.189C916.496 445.862 915.952 446.406 915.282 446.406C914.612 446.406 914.068 445.862 914.068 445.189C914.068 444.517 914.612 443.973 915.282 443.973C915.952 443.973 916.496 444.517 916.496 445.189Z" fill="#9871F5" stroke="#9871F5"/>
<path d="M868.624 457.178C868.624 457.851 868.08 458.395 867.41 458.395C866.74 458.395 866.196 457.851 866.196 457.178C866.196 456.506 866.74 455.962 867.41 455.962C868.08 455.962 868.624 456.506 868.624 457.178Z" fill="#9871F5" stroke="#9871F5"/>
<path d="M880.596 457.178C880.596 457.851 880.052 458.395 879.382 458.395C878.713 458.395 878.168 457.851 878.168 457.178C878.168 456.506 878.713 455.962 879.382 455.962C880.052 455.962 880.596 456.506 880.596 457.178Z" fill="#9871F5" stroke="#9871F5"/>
<path d="M892.56 457.178C892.56 457.851 892.016 458.395 891.346 458.395C890.676 458.395 890.132 457.851 890.132 457.178C890.132 456.506 890.676 455.962 891.346 455.962C892.016 455.962 892.56 456.506 892.56 457.178Z" fill="#9871F5" stroke="#9871F5"/>
<path d="M904.533 457.178C904.533 457.851 903.988 458.395 903.319 458.395C902.649 458.395 902.105 457.851 902.105 457.178C902.105 456.506 902.649 455.962 903.319 455.962C903.988 455.962 904.533 456.506 904.533 457.178Z" fill="#9871F5" stroke="#9871F5"/>
<path d="M916.496 457.178C916.496 457.851 915.952 458.395 915.282 458.395C914.612 458.395 914.068 457.851 914.068 457.178C914.068 456.506 914.612 455.962 915.282 455.962C915.952 455.962 916.496 456.506 916.496 457.178Z" fill="#9871F5" stroke="#9871F5"/>
<path d="M1171.93 145.398C1171.93 146.07 1171.39 146.614 1170.72 146.614C1170.05 146.614 1169.5 146.07 1169.5 145.398C1169.5 144.725 1170.05 144.181 1170.72 144.181C1171.39 144.181 1171.93 144.725 1171.93 145.398Z" fill="#9871F5" stroke="#9871F5"/>
<path d="M1183.89 145.398C1183.89 146.07 1183.35 146.614 1182.68 146.614C1182.01 146.614 1181.47 146.07 1181.47 145.398C1181.47 144.725 1182.01 144.181 1182.68 144.181C1183.35 144.181 1183.89 144.725 1183.89 145.398Z" fill="#9871F5" stroke="#9871F5"/>
<path d="M1195.87 145.398C1195.87 146.07 1195.32 146.614 1194.65 146.614C1193.98 146.614 1193.44 146.07 1193.44 145.398C1193.44 144.725 1193.98 144.181 1194.65 144.181C1195.32 144.181 1195.87 144.725 1195.87 145.398Z" fill="#9871F5" stroke="#9871F5"/>
<path d="M1171.93 157.387C1171.93 158.059 1171.39 158.603 1170.72 158.603C1170.05 158.603 1169.5 158.059 1169.5 157.387C1169.5 156.714 1170.05 156.17 1170.72 156.17C1171.39 156.17 1171.93 156.714 1171.93 157.387Z" fill="#9871F5" stroke="#9871F5"/>
<path d="M1183.89 157.387C1183.89 158.059 1183.35 158.603 1182.68 158.603C1182.01 158.603 1181.47 158.059 1181.47 157.387C1181.47 156.714 1182.01 156.17 1182.68 156.17C1183.35 156.17 1183.89 156.714 1183.89 157.387Z" fill="#9871F5" stroke="#9871F5"/>
<path d="M1195.87 157.387C1195.87 158.059 1195.32 158.603 1194.65 158.603C1193.98 158.603 1193.44 158.059 1193.44 157.387C1193.44 156.714 1193.98 156.17 1194.65 156.17C1195.32 156.17 1195.87 156.714 1195.87 157.387Z" fill="#9871F5" stroke="#9871F5"/>
<path d="M858.582 122.716C858.582 123.389 858.038 123.933 857.368 123.933C856.698 123.933 856.154 123.389 856.154 122.716C856.154 122.044 856.698 121.5 857.368 121.5C858.038 121.5 858.582 122.044 858.582 122.716Z" fill="#9871F5" stroke="#9871F5"/>
<path d="M870.546 122.716C870.546 123.389 870.002 123.933 869.332 123.933C868.662 123.933 868.118 123.389 868.118 122.716C868.118 122.044 868.662 121.5 869.332 121.5C870.002 121.5 870.546 122.044 870.546 122.716Z" fill="#9871F5" stroke="#9871F5"/>
<path d="M882.518 122.716C882.518 123.389 881.974 123.933 881.304 123.933C880.635 123.933 880.09 123.389 880.09 122.716C880.09 122.044 880.635 121.5 881.304 121.5C881.974 121.5 882.518 122.044 882.518 122.716Z" fill="#9871F5" stroke="#9871F5"/>
<path d="M858.582 134.705C858.582 135.378 858.038 135.922 857.368 135.922C856.698 135.922 856.154 135.378 856.154 134.705C856.154 134.033 856.698 133.489 857.368 133.489C858.038 133.489 858.582 134.033 858.582 134.705Z" fill="#9871F5" stroke="#9871F5"/>
<path d="M870.546 134.705C870.546 135.378 870.001 135.922 869.332 135.922C868.662 135.922 868.118 135.378 868.118 134.705C868.118 134.033 868.662 133.489 869.332 133.489C870.002 133.489 870.546 134.033 870.546 134.705Z" fill="#9871F5" stroke="#9871F5"/>
<path d="M882.518 134.705C882.518 135.378 881.974 135.922 881.304 135.922C880.635 135.922 880.09 135.378 880.09 134.705C880.09 134.033 880.635 133.489 881.304 133.489C881.974 133.489 882.518 134.033 882.518 134.705Z" fill="#9871F5" stroke="#9871F5"/>
<path d="M1279.5 307.4C1279.5 308.072 1278.96 308.616 1278.29 308.616C1277.62 308.616 1277.07 308.072 1277.07 307.4C1277.07 306.728 1277.62 306.184 1278.29 306.184C1278.96 306.184 1279.5 306.728 1279.5 307.4Z" fill="#9871F5" stroke="#9871F5"/>
<path d="M1279.5 319.389C1279.5 320.061 1278.96 320.605 1278.29 320.605C1277.62 320.605 1277.07 320.061 1277.07 319.389C1277.07 318.717 1277.62 318.173 1278.29 318.173C1278.96 318.173 1279.5 318.717 1279.5 319.389Z" fill="#9871F5" stroke="#9871F5"/>
<path d="M1279.5 331.369C1279.5 332.041 1278.96 332.585 1278.29 332.585C1277.62 332.585 1277.07 332.041 1277.07 331.369C1277.07 330.697 1277.62 330.153 1278.29 330.153C1278.96 330.153 1279.5 330.697 1279.5 331.369Z" fill="#9871F5" stroke="#9871F5"/>
<path d="M1279.5 343.358C1279.5 344.03 1278.96 344.574 1278.29 344.574C1277.62 344.574 1277.07 344.03 1277.07 343.358C1277.07 342.686 1277.62 342.142 1278.29 342.142C1278.96 342.142 1279.5 342.686 1279.5 343.358Z" fill="#9871F5" stroke="#9871F5"/>
<path d="M1279.5 355.338C1279.5 356.01 1278.96 356.554 1278.29 356.554C1277.62 356.554 1277.07 356.01 1277.07 355.338C1277.07 354.666 1277.62 354.122 1278.29 354.122C1278.96 354.122 1279.5 354.666 1279.5 355.338Z" fill="#9871F5" stroke="#9871F5"/>
<path d="M1279.5 367.327C1279.5 367.999 1278.96 368.543 1278.29 368.543C1277.62 368.543 1277.07 367.999 1277.07 367.327C1277.07 366.655 1277.62 366.111 1278.29 366.111C1278.96 366.111 1279.5 366.655 1279.5 367.327Z" fill="#9871F5" stroke="#9871F5"/>
<path d="M1279.5 379.307C1279.5 379.979 1278.96 380.523 1278.29 380.523C1277.62 380.523 1277.07 379.979 1277.07 379.307C1277.07 378.635 1277.62 378.091 1278.29 378.091C1278.96 378.091 1279.5 378.635 1279.5 379.307Z" fill="#9871F5" stroke="#9871F5"/>
<path d="M1267.53 307.4C1267.53 308.072 1266.98 308.616 1266.31 308.616C1265.64 308.616 1265.1 308.072 1265.1 307.4C1265.1 306.728 1265.64 306.184 1266.31 306.184C1266.98 306.184 1267.53 306.728 1267.53 307.4Z" fill="#9871F5" stroke="#9871F5"/>
<path d="M1267.53 319.389C1267.53 320.061 1266.98 320.605 1266.31 320.605C1265.64 320.605 1265.1 320.061 1265.1 319.389C1265.1 318.717 1265.64 318.173 1266.31 318.173C1266.98 318.173 1267.53 318.717 1267.53 319.389Z" fill="#9871F5" stroke="#9871F5"/>
<path d="M1267.53 331.369C1267.53 332.041 1266.98 332.585 1266.31 332.585C1265.64 332.585 1265.1 332.041 1265.1 331.369C1265.1 330.697 1265.64 330.153 1266.31 330.153C1266.98 330.153 1267.53 330.697 1267.53 331.369Z" fill="#9871F5" stroke="#9871F5"/>
<path d="M1267.53 343.358C1267.53 344.03 1266.98 344.574 1266.31 344.574C1265.64 344.574 1265.1 344.03 1265.1 343.358C1265.1 342.686 1265.64 342.142 1266.31 342.142C1266.98 342.142 1267.53 342.686 1267.53 343.358Z" fill="#9871F5" stroke="#9871F5"/>
<path d="M1267.53 355.338C1267.53 356.01 1266.98 356.554 1266.31 356.554C1265.64 356.554 1265.1 356.01 1265.1 355.338C1265.1 354.666 1265.64 354.122 1266.31 354.122C1266.98 354.122 1267.53 354.666 1267.53 355.338Z" fill="#9871F5" stroke="#9871F5"/>
<path d="M1267.53 367.327C1267.53 367.999 1266.98 368.543 1266.31 368.543C1265.64 368.543 1265.1 367.999 1265.1 367.327C1265.1 366.655 1265.64 366.111 1266.31 366.111C1266.98 366.111 1267.53 366.655 1267.53 367.327Z" fill="#9871F5" stroke="#9871F5"/>
<path d="M1267.53 379.307C1267.53 379.979 1266.98 380.523 1266.31 380.523C1265.64 380.523 1265.1 379.979 1265.1 379.307C1265.1 378.635 1265.64 378.091 1266.31 378.091C1266.98 378.091 1267.53 378.635 1267.53 379.307Z" fill="#9871F5" stroke="#9871F5"/>
<path d="M1255.56 307.4C1255.56 308.072 1255.02 308.616 1254.35 308.616C1253.68 308.616 1253.14 308.072 1253.14 307.4C1253.14 306.728 1253.68 306.184 1254.35 306.184C1255.02 306.184 1255.56 306.728 1255.56 307.4Z" fill="#9871F5" stroke="#9871F5"/>
<path d="M1255.56 319.389C1255.56 320.061 1255.02 320.605 1254.35 320.605C1253.68 320.605 1253.14 320.061 1253.14 319.389C1253.14 318.717 1253.68 318.173 1254.35 318.173C1255.02 318.173 1255.56 318.717 1255.56 319.389Z" fill="#9871F5" stroke="#9871F5"/>
<path d="M1255.56 331.369C1255.56 332.041 1255.02 332.585 1254.35 332.585C1253.68 332.585 1253.14 332.041 1253.14 331.369C1253.14 330.697 1253.68 330.153 1254.35 330.153C1255.02 330.153 1255.56 330.697 1255.56 331.369Z" fill="#9871F5" stroke="#9871F5"/>
<path d="M1255.56 343.358C1255.56 344.03 1255.02 344.574 1254.35 344.574C1253.68 344.574 1253.14 344.03 1253.14 343.358C1253.14 342.686 1253.68 342.142 1254.35 342.142C1255.02 342.142 1255.56 342.686 1255.56 343.358Z" fill="#9871F5" stroke="#9871F5"/>
<path d="M1255.56 355.338C1255.56 356.01 1255.02 356.554 1254.35 356.554C1253.68 356.554 1253.14 356.01 1253.14 355.338C1253.14 354.666 1253.68 354.122 1254.35 354.122C1255.02 354.122 1255.56 354.666 1255.56 355.338Z" fill="#9871F5" stroke="#9871F5"/>
<path d="M1255.56 367.327C1255.56 367.999 1255.02 368.543 1254.35 368.543C1253.68 368.543 1253.14 367.999 1253.14 367.327C1253.14 366.655 1253.68 366.111 1254.35 366.111C1255.02 366.111 1255.56 366.655 1255.56 367.327Z" fill="#9871F5" stroke="#9871F5"/>
<path d="M1255.56 379.307C1255.56 379.979 1255.02 380.523 1254.35 380.523C1253.68 380.523 1253.14 379.979 1253.14 379.307C1253.14 378.635 1253.68 378.091 1254.35 378.091C1255.02 378.091 1255.56 378.635 1255.56 379.307Z" fill="#9871F5" stroke="#9871F5"/>
<path d="M1243.59 307.4C1243.59 308.072 1243.05 308.616 1242.38 308.616C1241.71 308.616 1241.16 308.072 1241.16 307.4C1241.16 306.728 1241.71 306.184 1242.38 306.184C1243.05 306.184 1243.59 306.728 1243.59 307.4Z" fill="#9871F5" stroke="#9871F5"/>
<path d="M1243.59 319.389C1243.59 320.061 1243.05 320.605 1242.38 320.605C1241.71 320.605 1241.16 320.061 1241.16 319.389C1241.16 318.717 1241.71 318.173 1242.38 318.173C1243.05 318.173 1243.59 318.717 1243.59 319.389Z" fill="#9871F5" stroke="#9871F5"/>
<path d="M1243.59 331.369C1243.59 332.041 1243.05 332.585 1242.38 332.585C1241.71 332.585 1241.16 332.041 1241.16 331.369C1241.16 330.697 1241.71 330.153 1242.38 330.153C1243.05 330.153 1243.59 330.697 1243.59 331.369Z" fill="#9871F5" stroke="#9871F5"/>
<path d="M1243.59 343.358C1243.59 344.03 1243.05 344.574 1242.38 344.574C1241.71 344.574 1241.16 344.03 1241.16 343.358C1241.16 342.686 1241.71 342.142 1242.38 342.142C1243.05 342.142 1243.59 342.686 1243.59 343.358Z" fill="#9871F5" stroke="#9871F5"/>
<path d="M1243.59 355.338C1243.59 356.01 1243.05 356.554 1242.38 356.554C1241.71 356.554 1241.16 356.01 1241.16 355.338C1241.16 354.666 1241.71 354.122 1242.38 354.122C1243.05 354.122 1243.59 354.666 1243.59 355.338Z" fill="#9871F5" stroke="#9871F5"/>
<path d="M1243.59 367.327C1243.59 367.999 1243.05 368.543 1242.38 368.543C1241.71 368.543 1241.16 367.999 1241.16 367.327C1241.16 366.655 1241.71 366.111 1242.38 366.111C1243.05 366.111 1243.59 366.655 1243.59 367.327Z" fill="#9871F5" stroke="#9871F5"/>
<path d="M1243.59 379.307C1243.59 379.979 1243.05 380.523 1242.38 380.523C1241.71 380.523 1241.16 379.979 1241.16 379.307C1241.16 378.635 1241.71 378.091 1242.38 378.091C1243.05 378.091 1243.59 378.635 1243.59 379.307Z" fill="#9871F5" stroke="#9871F5"/>
<path d="M1140.05 378.842H829.287C823.676 378.842 819.118 374.248 819.118 368.574V177.031C819.118 171.357 823.676 166.762 829.287 166.762H1140.06C1145.67 166.762 1150.23 171.357 1150.23 177.031V368.573C1150.22 374.248 1145.66 378.842 1140.05 378.842Z" fill="#04D361" stroke="#04D361"/>
<path d="M1139.6 370.268H829.733C824.927 370.268 821.025 366.36 821.025 361.548V177.073C821.025 172.261 824.927 168.353 829.733 168.353H1139.6C1144.41 168.353 1148.31 172.261 1148.31 177.073V361.548C1148.31 366.369 1144.41 370.268 1139.6 370.268Z" fill="white"/>
<path d="M1037.69 185.611V315.765C1037.69 319.691 1034.52 322.869 1030.6 322.869H834.894C833.135 322.869 831.521 322.23 830.28 321.161C828.767 319.856 827.8 317.929 827.8 315.765V185.611C827.8 181.684 830.983 178.507 834.894 178.507H1030.6C1032.36 178.507 1033.98 179.146 1035.21 180.214C1036.73 181.52 1037.69 183.447 1037.69 185.611Z" fill="#E6E6F0"/>
<path d="M1134.5 234.142H1053.49C1049.57 234.142 1046.4 230.965 1046.4 227.038V185.611C1046.4 181.684 1049.57 178.507 1053.49 178.507H1134.5C1138.42 178.507 1141.59 181.684 1141.59 185.611V227.038C1141.59 230.965 1138.41 234.142 1134.5 234.142Z" fill="#E6E6F0"/>
<path d="M1134.5 299.636H1053.49C1049.57 299.636 1046.4 296.458 1046.4 292.532V251.104C1046.4 247.178 1049.57 244 1053.49 244H1134.5C1138.42 244 1141.59 247.178 1141.59 251.104V292.532C1141.59 296.458 1138.41 299.636 1134.5 299.636Z" fill="#E6E6F0"/>
<path d="M1134.5 361.691H1053.49C1049.57 361.691 1046.4 358.513 1046.4 354.587V317.104C1046.4 313.178 1049.57 310 1053.49 310H1134.5C1138.42 310 1141.59 313.178 1141.59 317.104V354.587C1141.59 358.513 1138.41 361.691 1134.5 361.691Z" fill="#E6E6F0"/>
<path d="M934.825 336.839H830.381C828.958 336.839 827.809 335.689 827.809 334.265C827.809 332.84 828.958 331.69 830.381 331.69H934.825C936.247 331.69 937.396 332.84 937.396 334.265C937.396 335.68 936.247 336.839 934.825 336.839Z" fill="#E6E6F0"/>
<path d="M940.853 361H830.485C828.981 361 827.767 359.884 827.767 358.501V348.499C827.767 347.116 828.981 346 830.485 346H940.853C942.357 346 943.571 347.116 943.571 348.499V358.501C943.571 359.884 942.357 361 940.853 361Z" fill="#E6E6F0"/>
<path d="M1012.15 336.839H1035.12C1036.54 336.839 1037.69 335.689 1037.69 334.265C1037.69 332.84 1036.54 331.69 1035.12 331.69H1012.15C1010.73 331.69 1009.58 332.84 1009.58 334.265C1009.58 335.68 1010.73 336.839 1012.15 336.839Z" fill="#E6E6F0"/>
<path d="M973.187 336.839H996.156C997.579 336.839 998.728 335.689 998.728 334.265C998.728 332.84 997.579 331.69 996.156 331.69H973.187C971.764 331.69 970.615 332.84 970.615 334.265C970.606 335.68 971.764 336.839 973.187 336.839Z" fill="#E6E6F0"/>
<path d="M989.564 361.11H1035.12C1036.54 361.11 1037.69 359.959 1037.69 358.535V348.226C1037.69 346.801 1036.54 345.651 1035.12 345.651H989.564C988.141 345.651 986.992 346.801 986.992 348.226V358.535C986.992 359.959 988.141 361.11 989.564 361.11Z" fill="#E6E6F0"/>
<g opacity="0.24">
<path d="M1093.7 221.14C1101.63 221.14 1108.06 214.701 1108.06 206.758C1108.06 198.816 1101.63 192.377 1093.7 192.377C1085.77 192.377 1079.34 198.816 1079.34 206.758C1079.34 214.701 1085.77 221.14 1093.7 221.14Z" fill="#E6E6F0" stroke="#6842C2" stroke-width="2" stroke-miterlimit="10"/>
<path d="M1099.59 205.34L1091.39 200.601C1090.49 200.081 1089.37 200.729 1089.37 201.77V211.248C1089.37 212.289 1090.49 212.937 1091.39 212.417L1099.59 207.678C1100.49 207.157 1100.49 205.861 1099.59 205.34Z" fill="#E6E6F0" stroke="#6842C2" stroke-width="2" stroke-miterlimit="10"/>
</g>
<g opacity="0.24">
<path d="M1093.7 285.763C1101.63 285.763 1108.06 279.324 1108.06 271.381C1108.06 263.439 1101.63 257 1093.7 257C1085.77 257 1079.34 263.439 1079.34 271.381C1079.34 279.324 1085.77 285.763 1093.7 285.763Z" fill="#E6E6F0" stroke="#6842C2" stroke-width="2" stroke-miterlimit="10"/>
<path d="M1099.59 269.963L1091.39 265.224C1090.49 264.704 1089.37 265.352 1089.37 266.393V275.871C1089.37 276.912 1090.49 277.56 1091.39 277.04L1099.59 272.301C1100.49 271.78 1100.49 270.484 1099.59 269.963Z" fill="#E6E6F0" stroke="#6842C2" stroke-width="2" stroke-miterlimit="10"/>
</g>
<g opacity="0.24">
<path d="M1093.7 349.763C1101.63 349.763 1108.06 343.324 1108.06 335.381C1108.06 327.439 1101.63 321 1093.7 321C1085.77 321 1079.34 327.439 1079.34 335.381C1079.34 343.324 1085.77 349.763 1093.7 349.763Z" fill="#E6E6F0" stroke="#6842C2" stroke-width="2" stroke-miterlimit="10"/>
<path d="M1099.59 333.963L1091.39 329.224C1090.49 328.704 1089.37 329.352 1089.37 330.393V339.871C1089.37 340.912 1090.49 341.56 1091.39 341.04L1099.59 336.301C1100.49 335.78 1100.49 334.484 1099.59 333.963Z" fill="#E6E6F0" stroke="#6842C2" stroke-width="2" stroke-miterlimit="10"/>
</g>
<path d="M1035.21 180.214L830.28 321.161C828.767 319.856 827.8 317.929 827.8 315.765V185.611C827.8 181.684 830.983 178.507 834.894 178.507H1030.6C1032.36 178.507 1033.98 179.146 1035.21 180.214Z" fill="#F2F2FA"/>
<mask id="mask0" mask-type="alpha" maskUnits="userSpaceOnUse" x="828" y="149" width="210" height="175">
<path d="M1037.95 157.819V314.587C1037.95 319.316 1034.78 323.144 1030.87 323.144H835.512C833.755 323.144 832.144 322.374 830.906 321.087C829.395 319.514 828.43 317.194 828.43 314.587V157.819C828.43 153.09 831.607 149.262 835.512 149.262H1030.87C1032.62 149.262 1034.24 150.032 1035.47 151.319C1036.99 152.892 1037.95 155.212 1037.95 157.819Z" fill="#A3D1DE"/>
</mask>
<g mask="url(#mask0)">
<path d="M1021.44 259.967C1021.44 259.967 1033.14 250.718 1033.45 248.07C1034.04 243.084 1035.82 239.176 1046.53 235.871C1046.53 235.871 1047.36 237.459 1045.87 239.185C1044.25 241.057 1042.96 241.714 1042.96 241.714C1042.96 241.714 1045.8 242.801 1050.02 239.496C1054.24 236.199 1056.02 233.332 1057.8 234.035C1057.8 234.035 1059.9 232.136 1060.89 232.437C1060.89 232.437 1061.62 232.656 1061.48 233.442C1063.13 233.186 1062.79 237.952 1059.86 241.824C1055.64 247.394 1050.37 252.188 1046.05 253.767C1042.82 254.955 1029.44 268.587 1029.44 268.587L1021.44 259.967Z" fill="#FFCAD0"/>
<path d="M985.314 307.157C980.208 308.883 951.877 265.254 951.877 265.254C940.925 252.635 950.755 211.071 960.667 225.644C960.667 225.644 986.445 272.34 989.226 276.102C992.682 280.777 1004.18 300.774 985.314 307.157Z" fill="#04D361"/>
<path d="M953.39 350.465H878.691C878.691 350.465 872.955 347.936 877.943 336.906C879.812 332.788 879.001 322.177 878.691 307.613C878.062 278.814 869.527 231.013 880.059 225.534C886.369 222.238 899.773 217.901 909.502 214.933C910.086 214.769 910.651 214.595 911.208 214.431C916.888 212.732 920.946 211.609 920.946 211.609C920.946 211.609 925.651 212.294 935.208 215.125C935.727 215.28 936.265 215.444 936.822 215.609C939.311 216.367 942.083 217.252 945.165 218.302C961.87 223.991 959.992 221.964 962.208 242.856C963.977 259.538 953.39 350.465 953.39 350.465Z" fill="#04D361"/>
<path d="M936.822 215.6C936.603 219.142 935.016 222.274 932.6 224.566C930.147 226.913 926.819 228.337 923.189 228.337C915.703 228.337 909.648 222.338 909.493 214.933C910.077 214.769 910.642 214.595 911.199 214.431C916.879 212.732 920.937 211.609 920.937 211.609C920.937 211.609 925.642 212.294 935.199 215.125C935.718 215.271 936.265 215.435 936.822 215.6Z" fill="#F2F2FA"/>
<path d="M935.18 185.695L934.004 208.45L933.667 214.942C933.53 217.7 932.317 220.156 930.439 221.927C928.579 223.699 926.062 224.776 923.308 224.776C917.481 224.776 912.785 219.964 912.94 214.139L913.232 202.551L913.724 183.303L935.18 185.695Z" fill="#FBD5D9"/>
<path d="M935.18 190.243L934.004 211.673C923.937 212.075 916.597 207.984 913.232 202.524L913.724 187.869L935.18 190.243Z" fill="#FFA4AD"/>
<path d="M907.04 163.416C907.04 163.416 897.393 162.21 898.496 174.318C899.354 183.705 912.092 196.233 912.092 196.233C912.092 196.233 920.135 167.945 907.04 163.416Z" fill="#8F4A3F"/>
<path d="M946.442 172.136C945.785 173.633 944.773 174.939 943.943 176.345C943.123 177.751 942.466 179.358 942.649 180.984C942.484 178.345 940.743 176.126 939.238 173.962C937.734 171.789 936.366 169.159 937.086 166.621C937.77 164.183 942.174 160.338 944.855 161.918C947.837 163.671 947.609 169.479 946.442 172.136Z" fill="#0E1235"/>
<path d="M943.168 172.62C943.168 172.62 943.916 180.034 942.877 188.243C941.673 197.73 942.101 208.87 928.141 209.619C913.241 210.413 908.308 193.712 908.308 193.712C908.308 193.712 900.393 192.233 899.855 186.882C899.317 181.522 904.843 181.221 906.648 182.728C906.648 182.728 908.691 162.758 927.12 162.758C943.378 162.74 943.168 172.62 943.168 172.62Z" fill="#FBD5D9"/>
<path d="M925.66 187.859C925.66 188.672 925.004 189.338 924.183 189.338C923.363 189.338 922.706 188.681 922.706 187.859C922.706 187.047 923.363 186.38 924.183 186.38C925.004 186.38 925.66 187.047 925.66 187.859Z" fill="#9A5449"/>
<path d="M939.01 187.859C939.01 188.672 938.353 189.338 937.533 189.338C936.712 189.338 936.056 188.681 936.056 187.859C936.056 187.047 936.712 186.38 937.533 186.38C938.353 186.38 939.01 187.047 939.01 187.859Z" fill="#9A5449"/>
<path d="M918.813 182.719C918.813 182.719 921.001 179.112 925.661 180.408" stroke="#561E15" stroke-width="1.0274" stroke-miterlimit="10" stroke-linecap="round" stroke-linejoin="round"/>
<path d="M933.694 180.354C933.694 180.354 937.059 177.276 940.369 180.646" stroke="#561E15" stroke-width="1.0274" stroke-miterlimit="10" stroke-linecap="round" stroke-linejoin="round"/>
<path d="M930.74 184.015C930.74 184.015 932.335 188.097 933.694 190.635C935.053 193.174 931.041 194.306 931.041 194.306" stroke="#D66D78" stroke-width="0.7706" stroke-miterlimit="10" stroke-linecap="round" stroke-linejoin="round"/>
<path d="M925.396 198.871C925.396 198.871 928.688 202.067 932.919 200.113" stroke="#D66D78" stroke-width="0.7706" stroke-miterlimit="10" stroke-linecap="round" stroke-linejoin="round"/>
<path d="M906.383 188.598C906.383 188.598 906.338 184.006 902.91 185.257" stroke="#D66D78" stroke-width="0.7706" stroke-miterlimit="10" stroke-linecap="round" stroke-linejoin="round"/>
<path d="M910.907 167.251C910.907 167.251 919.287 175.797 914.7 179.066C909.594 182.71 908.8 187.859 908.8 187.859C908.8 187.859 908.91 186.042 906.639 182.719C904.369 179.386 899.417 167.57 910.907 167.251Z" fill="#8F4A3F"/>
<path d="M985.314 307.157C991.406 311.129 1037.7 261.611 1037.7 261.611L1029.48 250.845C1029.48 250.845 994.287 272.961 989.226 276.102C981.931 280.622 964.825 293.807 985.314 307.157Z" fill="#04D361"/>
<path d="M960.694 278.366C960.694 278.366 962.764 255.731 962.409 248.544C962.409 248.544 965.354 267.546 965.427 285.105L960.694 278.366Z" fill="#03A14A"/>
<path d="M882.466 270.651C882.466 270.651 893.308 224.164 881.709 224.712C881.709 224.712 877.925 225.169 870.521 236.674C865.341 244.718 859.67 258.662 849.329 281.343C844.442 292.063 838.332 306.572 849.676 307.348C855.812 307.769 862.25 304.408 866.043 297.35C872.992 284.42 882.466 270.651 882.466 270.651Z" fill="#04D361"/>
<path d="M892.168 328.514L951.174 314.589C951.165 314.589 932.609 328.514 892.168 328.514Z" fill="#03A14A"/>
<path d="M876.32 279.992C876.32 279.992 885.84 263.108 890.901 254.872L879.019 319.456C879.019 319.456 877.861 293.077 876.32 279.992Z" fill="#03A14A"/>
<path d="M914.262 301.989L878.974 318.488L880.788 301.523L914.262 301.989Z" fill="#03A14A"/>
<path d="M920.043 299.166L920.043 299.166L925.87 267.307L925.87 267.306C926.173 265.628 927.634 264.412 929.345 264.412H941.728C943.932 264.412 945.602 266.412 945.202 268.588L945.202 268.588L939.376 300.446C939.064 302.127 937.601 303.342 935.901 303.342H923.518C921.313 303.342 919.643 301.343 920.043 299.166Z" fill="#04D361" stroke="#04D361"/>
<path d="M937.433 305.193H925.049C922.533 305.193 920.627 302.911 921.083 300.427L926.91 268.569C927.256 266.651 928.925 265.263 930.876 265.263H943.259C945.776 265.263 947.682 267.546 947.226 270.03L941.399 301.888C941.053 303.805 939.384 305.193 937.433 305.193Z" fill="white"/>
<path d="M928.231 276.552L928.232 276.548L929.654 268.768L929.654 268.768L929.655 268.764C929.676 268.643 929.784 268.548 929.919 268.548H932.135C932.307 268.548 932.432 268.703 932.401 268.867L932.4 268.872L930.977 276.651L930.977 276.651L930.977 276.655C930.956 276.777 930.848 276.871 930.712 276.871H928.497C928.325 276.871 928.199 276.717 928.231 276.552Z" fill="#04D361" stroke="#04D361"/>
<path d="M902.627 287.963C902.627 287.963 908.664 287.762 913.287 286.347C915.275 285.735 919.214 285.023 920.518 283.133C921.831 281.225 921.712 277.106 923.025 276.933C924.038 276.796 926.062 280.019 925.542 282.192C925.031 284.32 924.785 285.498 924.01 286.448C923.755 286.767 932.263 287.37 937.652 286.183C941.345 285.37 940.25 289.032 937.743 290.182C937.743 290.182 938.636 292.419 936.019 293.177C936.019 293.177 936.047 296.163 933.548 296.3C933.266 296.994 932.782 298.473 930.621 299.003C927.475 299.779 922.724 300.071 917.937 299.642C915.503 299.423 904.268 301.395 904.268 301.395L902.627 287.963Z" fill="#FFCAD0"/>
<path d="M849.311 307.522C857.928 309.029 909.293 303.221 909.293 303.221L908.016 285.224C908.016 285.224 866.162 287.178 860.581 286.676C842.125 285.041 838.587 305.65 849.311 307.522Z" fill="#04D361"/>
<path d="M912.94 153.681C913.825 152.795 914.81 151.855 916.05 151.718C917.29 151.581 918.703 152.741 918.293 153.928C922.515 152.092 926.928 150.723 931.442 149.846C932.573 149.627 933.794 149.444 934.843 149.947C935.883 150.449 936.53 151.901 935.819 152.805C938.007 153.626 940.433 153.088 942.758 152.814C945.083 152.54 947.737 152.659 949.314 154.384C950.782 155.982 950.81 158.393 950.764 160.566C950.691 163.543 950.618 166.538 949.943 169.441C948.94 173.733 946.606 177.696 943.332 180.645C944.308 177.303 942.566 173.596 939.822 171.45C937.086 169.295 933.557 168.446 930.101 168.053C925.962 167.579 921.749 167.688 917.627 168.364C914.518 168.875 910.077 171.094 906.986 169.688C900.138 166.583 910.296 156.329 912.94 153.681Z" fill="#8F4A3F"/>
</g>
<path d="M1018.8 192.158H975.922C972.64 192.158 969.977 189.491 969.977 186.204V168.198C969.977 164.911 972.64 162.244 975.922 162.244H1018.8C1022.08 162.244 1024.74 164.911 1024.74 168.198V186.204C1024.74 189.491 1022.08 192.158 1018.8 192.158Z" fill="#04D361"/>
<path d="M979.15 190.222V198.422L987.922 189.638L979.15 190.222Z" fill="#04D361"/>
<path d="M982.57 180.625C984.458 180.625 985.989 179.092 985.989 177.201C985.989 175.31 984.458 173.777 982.57 173.777C980.681 173.777 979.15 175.31 979.15 177.201C979.15 179.092 980.681 180.625 982.57 180.625Z" fill="#E6E6F0"/>
<path d="M997.36 180.625C999.248 180.625 1000.78 179.092 1000.78 177.201C1000.78 175.31 999.248 173.777 997.36 173.777C995.471 173.777 993.94 175.31 993.94 177.201C993.94 179.092 995.471 180.625 997.36 180.625Z" fill="#E6E6F0"/>
<path d="M1012.15 180.625C1014.04 180.625 1015.57 179.092 1015.57 177.201C1015.57 175.31 1014.04 173.777 1012.15 173.777C1010.26 173.777 1008.73 175.31 1008.73 177.201C1008.73 179.092 1010.26 180.625 1012.15 180.625Z" fill="#E6E6F0"/>
<path d="M1136.74 435.882L1134.8 459.541H1144.87L1150.11 435.882H1136.74Z" fill="#FEC9CF"/>
<path d="M1145.97 454.591C1145.97 454.591 1150.34 461.668 1147.06 462.928C1143.78 464.188 1122.17 464.298 1116.83 463.503C1111.5 462.7 1128.73 455.386 1132.67 454.235C1136.62 453.085 1137.89 459.084 1145.97 454.591Z" fill="#6842C2"/>
<path d="M1189.72 435.882L1191.65 459.541H1181.57L1176.35 435.882H1189.72Z" fill="#FEC9CF"/>
<path d="M1180.48 454.591C1180.48 454.591 1176.1 461.668 1179.39 462.928C1182.67 464.188 1204.28 464.298 1209.61 463.503C1214.95 462.7 1197.71 455.386 1193.77 454.235C1189.83 453.085 1188.56 459.084 1180.48 454.591Z" fill="#6842C2"/>
<path d="M1134.71 306.522L1130.14 448.373H1151.42L1156 353.894L1174.23 451.085L1197.4 447.223C1197.4 447.223 1176.49 341.202 1172.93 306.531H1134.71V306.522Z" fill="#D8D8E3"/>
<path d="M1155.03 360.401L1154.3 345.101L1155.5 353.901L1155.03 360.401Z" fill="#194248" stroke="#C9C9D4"/>
<path d="M1166.09 306.522L1190.71 448.017" stroke="#C9C9D4" stroke-miterlimit="10" stroke-linecap="round" stroke-linejoin="round"/>
<path d="M1160.97 201.962C1165.51 201.971 1170.33 204.355 1171.86 208.637C1173.05 211.933 1172.15 215.823 1173.81 218.91C1175.04 221.192 1177.48 222.662 1178.58 225C1180.86 229.858 1176.42 235.629 1177.83 240.797C1179.14 245.581 1185.06 248.321 1185.55 253.261C1185.87 256.411 1183.65 259.433 1180.8 260.803C1177.95 262.182 1174.62 262.173 1171.5 261.652C1163.85 260.365 1156.64 256.164 1148.89 256.566C1145.7 256.73 1142.36 257.662 1139.41 256.429C1137.3 255.552 1135.78 253.699 1134.44 251.854C1132.9 249.736 1131.42 247.325 1131.57 244.714C1131.78 240.879 1135.25 238.194 1137.33 234.971C1139.45 231.675 1140.35 227.557 1139.76 223.676C1136.94 205.231 1147.3 205.797 1148.62 205.77C1149.83 205.743 1153.86 203.268 1155.46 202.802C1157.26 202.282 1159.11 201.962 1160.97 201.962Z" fill="#D38D00"/>
<path d="M1112.3 279.348C1107.91 275.85 1090.08 264.035 1089.9 262.382C1089.58 259.278 1088.49 256.821 1081.84 254.703C1081.84 254.703 1081.31 255.689 1082.24 256.776C1083.23 257.954 1084.03 258.364 1084.03 258.364C1084.03 258.364 1082.26 259.022 1079.66 256.94C1077.05 254.858 1075.96 253.059 1074.85 253.488C1074.85 253.488 1073.55 252.292 1072.93 252.475C1072.93 252.475 1072.48 252.603 1072.56 253.096C1071.53 252.922 1071.71 255.89 1073.51 258.328C1076.1 261.825 1080.67 264.491 1083.35 265.505C1085.35 266.263 1098.51 285.749 1107.33 287.858C1109.86 288.442 1114.34 280.973 1112.3 279.348Z" fill="#FCDDC6"/>
<path d="M1126.1 262.063C1126.1 262.063 1106.38 275.833 1104.48 279.257C1102.57 282.681 1103.99 291.821 1112.77 285.95C1121.56 280.078 1135.42 269.422 1135.42 269.422L1126.1 262.063Z" fill="#FCDDC6"/>
<path d="M1136.23 249.526C1136.23 249.526 1130.81 250.896 1127.2 255.196C1124.17 258.803 1119.29 264.611 1119.29 264.611L1134.25 276.243C1134.26 276.234 1137.9 255.087 1136.23 249.526Z" fill="#47248F"/>
<path d="M1172.93 306.522H1134.7C1134.7 306.522 1134.86 299.957 1132.73 289.757C1130.6 279.567 1131.67 274.235 1133.79 268.911C1135.93 263.588 1132.12 251.279 1136.23 249.526C1137.9 248.814 1140.8 247.663 1143.64 246.558C1144.36 246.284 1145.07 246.001 1145.76 245.737C1149.06 244.458 1151.84 243.399 1151.84 243.399H1158.72C1158.72 243.399 1163.46 244.97 1168.33 246.915C1168.97 247.17 1169.62 247.435 1170.26 247.7C1170.26 247.709 1170.26 247.709 1170.26 247.709C1172.71 248.741 1175.05 249.827 1176.65 250.823C1181.82 254.018 1172.93 306.522 1172.93 306.522Z" fill="#6842C2"/>
<path d="M1149.52 226.461L1150.25 240.632L1150.46 244.677C1150.55 246.394 1151.3 247.928 1152.47 249.033C1153.62 250.138 1155.19 250.804 1156.91 250.804C1160.54 250.804 1163.45 247.809 1163.36 244.184L1163.18 236.971L1162.87 224.982L1149.52 226.461Z" fill="#FFDFC8"/>
<path d="M1149.52 226.461L1150.25 239.811C1156.52 240.066 1161.09 237.51 1163.19 234.113L1162.88 224.982L1149.52 226.461Z" fill="#DA9F74"/>
<path d="M1144.54 215.485C1144.54 215.485 1144.08 220.106 1144.73 225.21C1145.47 231.118 1146.13 237.884 1153.91 238.523C1163.17 239.281 1166.26 228.616 1166.26 228.616C1166.26 228.616 1170.57 227.611 1171.1 224.671C1171.62 221.722 1168.42 220.836 1167.29 221.768C1167.29 221.768 1166.02 209.331 1154.55 209.331C1144.41 209.331 1144.54 215.485 1144.54 215.485Z" fill="#FFDFC8"/>
<path d="M1170.26 247.7C1170.26 247.709 1170.26 247.709 1170.26 247.7C1162.42 257.269 1153.17 256.822 1153.17 256.822C1145.87 255.224 1143.64 246.558 1143.64 246.558C1144.36 246.284 1145.07 246.001 1145.76 245.737C1149.06 244.458 1151.84 243.399 1151.84 243.399H1158.72C1158.72 243.399 1163.46 244.97 1168.33 246.915C1168.97 247.17 1169.62 247.435 1170.26 247.7Z" fill="#04D361"/>
<path d="M1168.33 246.915C1160.34 255.616 1153.41 254.703 1153.41 254.703C1145.96 251.845 1145.76 245.737 1145.76 245.737C1149.06 244.458 1151.84 243.399 1151.84 243.399H1158.72C1158.72 243.399 1163.46 244.97 1168.33 246.915Z" fill="#FCDDC6"/>
<path d="M1148.54 206.646C1148.54 206.646 1149.6 215.641 1143.83 218.608C1143.83 218.608 1140.94 207.715 1148.54 206.646Z" fill="#D38D00"/>
<path d="M1146.79 207.505C1146.79 207.505 1148.84 215.339 1153.93 215.796C1159.01 216.252 1158.11 220.38 1162.62 220.854C1165.3 221.138 1166.49 223.932 1166.49 223.932C1166.49 223.932 1166.88 221.156 1169.31 220.17C1171.75 219.183 1163.57 198.447 1146.79 207.505Z" fill="#D38D00"/>
<path d="M1155.42 226.36C1155.42 226.853 1155.81 227.246 1156.31 227.246C1156.8 227.246 1157.19 226.853 1157.19 226.36C1157.19 225.867 1156.8 225.475 1156.31 225.475C1155.82 225.475 1155.42 225.877 1155.42 226.36Z" fill="#60423D"/>
<path d="M1147.42 226.36C1147.42 226.853 1147.81 227.245 1148.3 227.245C1148.79 227.245 1149.18 226.853 1149.18 226.36C1149.18 225.867 1148.78 225.474 1148.3 225.474C1147.81 225.474 1147.42 225.876 1147.42 226.36Z" fill="#60423D"/>
<path d="M1159.53 223.274C1159.53 223.274 1158.22 221.11 1155.42 221.886" stroke="#561E15" stroke-miterlimit="10" stroke-linecap="round" stroke-linejoin="round"/>
<path d="M1150.61 221.859C1150.61 221.859 1148.58 220.015 1146.6 222.032" stroke="#561E15" stroke-miterlimit="10" stroke-linecap="round" stroke-linejoin="round"/>
<path d="M1152.38 224.059C1152.38 224.059 1151.42 226.506 1150.61 228.031C1149.79 229.556 1152.2 230.232 1152.2 230.232" stroke="#DA9F74" stroke-width="0.75" stroke-miterlimit="10" stroke-linecap="round" stroke-linejoin="round"/>
<path d="M1157.68 231.967C1157.68 231.967 1156.12 234.24 1153.41 233.592" stroke="#DA9F74" stroke-width="0.75" stroke-miterlimit="10" stroke-linecap="round" stroke-linejoin="round"/>
<path d="M1167.27 225.739C1167.27 225.739 1167.29 222.982 1169.35 223.74" stroke="#DA9F74" stroke-width="0.75" stroke-miterlimit="10" stroke-linecap="round" stroke-linejoin="round"/>
<path d="M1135.49 297.409H1100.47C1099.78 297.409 1099.21 296.843 1099.21 296.149C1099.21 295.455 1099.78 294.889 1100.47 294.889H1135.49C1136.18 294.889 1136.75 295.455 1136.75 296.149C1136.74 296.852 1136.18 297.409 1135.49 297.409Z" fill="#04D361"/>
<path d="M1096.54 267.622L1096.54 267.622L1096.53 267.62C1096.32 266.777 1096.97 265.951 1097.84 265.951H1129.38C1130 265.951 1130.53 266.371 1130.68 266.966L1130.68 266.968L1137.47 294.398H1103.17L1096.54 267.622Z" fill="#04D361" stroke="#04D361"/>
<path d="M1135.69 294.898H1100.35L1093.62 267.742C1093.33 266.583 1094.22 265.451 1095.41 265.451H1126.95C1127.8 265.451 1128.54 266.026 1128.74 266.848L1135.69 294.898Z" fill="white"/>
<path d="M1162.59 297.409H1136.09C1135.44 297.409 1134.91 296.88 1134.91 296.231V296.076C1134.91 295.428 1135.44 294.898 1136.09 294.898H1162.59C1163.24 294.898 1163.76 295.428 1163.76 296.076V296.231C1163.77 296.889 1163.24 297.409 1162.59 297.409Z" fill="#04D361"/>
<path d="M1115.48 278.632L1115.48 278.633C1116.07 280.168 1115.52 281.577 1114.57 281.95C1113.63 282.312 1112.27 281.639 1111.68 280.1C1111.09 278.561 1111.65 277.147 1112.59 276.783C1113.53 276.419 1114.89 277.086 1115.48 278.632Z" fill="#04D361" stroke="#04D361"/>
<path d="M1174.86 294.898L1172.56 265.076L1176.98 277.631L1174.86 294.898Z" fill="#47248F"/>
<path d="M1175.16 268.108C1175.16 268.108 1180.62 297.455 1181.97 302.258C1182.84 305.363 1189.21 307.481 1191.2 303.372C1191.64 302.468 1191.54 300.961 1191.49 299.427C1191.18 289.94 1184.56 265.798 1184.56 265.798L1175.16 268.108Z" fill="#FCDDC6"/>
<path d="M1176.66 250.823C1176.66 250.823 1179.91 252.494 1182.65 257.214C1185.38 261.935 1189.16 270.263 1188.92 272.281C1187.5 276.161 1176.27 280.179 1176.27 280.179C1176.27 280.179 1168.76 255.479 1176.66 250.823Z" fill="#6842C2"/>
<path d="M1182.96 296.587C1182.96 296.587 1165.64 296.204 1162.36 294.25C1157.91 291.593 1156.88 292.743 1154.3 292.104C1150.16 291.072 1150.62 291.912 1150.62 291.912C1150.62 291.912 1150.81 294.314 1154.01 294.615C1155.62 294.77 1158.04 295.455 1157.53 295.848C1157.53 295.848 1144.69 297.19 1142.11 297.418C1139.53 297.647 1140.79 299.637 1142.76 300.094C1142.76 300.094 1143.93 301.582 1145.84 301.126C1145.84 301.126 1145.42 301.966 1150.36 301.966C1155.3 301.966 1160.26 299.336 1162.77 300.477C1165.28 301.619 1178.82 306.869 1187.41 305.655C1191.51 305.07 1191.54 303.098 1191.54 301.016C1191.54 297.409 1188.88 296.953 1182.96 296.587Z" fill="#FCDDC6"/>
<path d="M823.705 435.882L817.988 459.54H807.912L810.338 435.882H823.705Z" fill="#BC8567"/>
<path d="M806.818 454.591C806.818 454.591 802.441 461.668 805.724 462.928C809.007 464.188 830.618 464.298 835.952 463.503C841.286 462.7 824.052 455.386 820.113 454.235C816.174 453.085 814.897 459.084 806.818 454.591Z" fill="#6842C2"/>
<path d="M791.973 435.882L788.517 459.54H778.441L778.605 435.882H791.973Z" fill="#BC8567"/>
<path d="M777.347 454.591C777.347 454.591 772.97 461.668 776.253 462.928C779.535 464.188 801.146 464.298 806.481 463.503C811.815 462.7 794.581 455.386 790.642 454.235C786.703 453.085 785.426 459.084 777.347 454.591Z" fill="#6842C2"/>
<path d="M775.04 321.461L775.788 447.707H791.782L803.08 354.953L815.955 392.591L806.317 447.716H823.715C823.715 447.716 839.007 400.079 838.387 390.729C837.767 381.369 820.113 317.616 820.113 317.616L775.04 321.461Z" fill="#D8D8E3"/>
<path d="M805.944 361.815L803.579 354.894L804.681 343.693L805.944 361.815Z" fill="#C9C9D4" stroke="#C9C9D4"/>
<path d="M784.068 319.936L783.146 447.716" stroke="#C9C9D4" stroke-miterlimit="10"/>
<path d="M833.043 263.643C833.043 263.643 843.374 283.21 843.602 289.219C843.83 295.227 837.219 293.885 833.8 288.47C830.381 283.046 824.909 267.669 824.909 267.669L833.043 263.643Z" fill="#BC8567"/>
<path d="M834.976 265.277C834.976 265.277 832.013 270.555 824.909 273.778C823.441 274.445 822.201 272.682 821.28 270.591C820.213 268.153 819.593 265.277 819.593 265.277C819.593 265.277 811.45 240.048 818.627 240.952C818.627 240.952 824.736 241.381 829.222 250.238C830.399 252.548 832.232 257.205 833.764 261.625C834.201 262.885 834.612 264.117 834.976 265.277Z" fill="#47248F"/>
<path d="M834.976 265.277C834.976 265.277 832.013 270.555 824.909 273.778C823.441 274.445 822.201 272.682 821.28 270.591C824.061 269.34 829.323 266.528 833.764 261.625C834.201 262.885 834.612 264.117 834.976 265.277Z" fill="#04D361"/>
<path d="M820.478 318.995C815.964 324.127 786.247 323.369 775.031 321.46C773.061 321.123 771.119 320.365 774.228 313.498C775.396 310.932 774.894 304.331 774.693 295.254C774.301 277.312 768.985 247.544 775.541 244.129C779.472 242.075 787.815 239.372 793.879 237.528C794.244 237.427 794.599 237.318 794.946 237.208C798.484 236.149 801.01 235.446 801.01 235.446C801.01 235.446 803.937 235.875 809.891 237.637C810.21 237.729 810.557 237.838 810.903 237.939C812.453 238.413 814.177 238.961 816.101 239.619C819.83 240.888 822.566 241.664 823.232 242.906C825.01 246.166 824.326 251.946 824.435 260.273C824.581 270.728 824.472 314.466 820.478 318.995Z" fill="#6842C2"/>
<path d="M773.298 274.938L779.709 259.287L775.04 299.546L773.298 274.938Z" fill="#47248F"/>
<path d="M810.903 237.948C810.766 240.158 809.773 242.102 808.277 243.527C806.745 244.988 804.675 245.874 802.423 245.874C797.763 245.874 793.988 242.139 793.897 237.519C794.262 237.418 794.617 237.309 794.964 237.199C798.502 236.14 801.028 235.437 801.028 235.437C801.028 235.437 803.955 235.866 809.909 237.628C810.219 237.747 810.557 237.847 810.903 237.948Z" fill="#04D361"/>
<path d="M814.789 203.5C814.789 203.5 811.413 200.269 806.304 199.5C798.83 198.376 788.991 200.81 787.031 212.235C785.481 218.818 793.496 229.639 796.523 229.008C796.523 229.008 823.774 211.735 814.789 203.5Z" fill="#43302D"/>
<path d="M809.882 219.329L809.153 233.501L808.943 237.546C808.861 239.263 808.104 240.797 806.937 241.901C805.779 243.006 804.21 243.673 802.496 243.673C798.867 243.673 795.949 240.678 796.04 237.053L796.222 229.839L796.532 217.85L809.882 219.329Z" fill="#BC8567"/>
<path d="M809.882 222.151L809.153 235.501C802.888 235.756 798.311 233.2 796.213 229.803L796.523 220.672L809.882 222.151Z" fill="#765441"/>
<path d="M814.852 211.175C814.852 211.175 815.317 215.796 814.669 220.9C813.922 226.808 814.186 233.747 805.487 234.213C796.204 234.706 793.131 224.306 793.131 224.306C793.131 224.306 788.198 223.384 787.861 220.051C787.523 216.718 790.97 216.526 792.092 217.458C792.092 217.458 793.368 205.021 804.839 205.021C814.988 205.03 814.852 211.175 814.852 211.175Z" fill="#BC8567"/>
<path d="M804.237 220.106C804.237 220.617 803.827 221.028 803.317 221.028C802.806 221.028 802.396 220.617 802.396 220.106C802.396 219.594 802.806 219.183 803.317 219.183C803.818 219.183 804.237 219.594 804.237 220.106Z" fill="#60423D"/>
<path d="M813.11 219.631C813.11 220.142 812.699 220.553 812.189 220.553C811.678 220.553 811.268 220.142 811.268 219.631C811.268 219.12 811.678 218.709 812.189 218.709C812.699 218.709 813.11 219.12 813.11 219.631Z" fill="#60423D"/>
<path d="M799.687 217.467C799.687 217.467 801.046 215.221 803.954 216.033" stroke="#43302D" stroke-miterlimit="10" stroke-linecap="round" stroke-linejoin="round"/>
<path d="M808.952 215.997C808.952 215.997 811.049 214.079 813.109 216.179" stroke="#43302D" stroke-miterlimit="10" stroke-linecap="round" stroke-linejoin="round"/>
<path d="M807.119 218.28C807.119 218.28 808.113 220.818 808.961 222.407C809.809 223.986 807.301 224.69 807.301 224.69" stroke="#765441" stroke-width="0.75" stroke-miterlimit="10" stroke-linecap="round" stroke-linejoin="round"/>
<path d="M803.782 227.529C803.782 227.529 805.833 229.52 808.468 228.305" stroke="#765441" stroke-width="0.75" stroke-miterlimit="10" stroke-linecap="round" stroke-linejoin="round"/>
<path d="M791.945 221.127C791.945 221.127 791.918 218.27 789.785 219.046" stroke="#765441" stroke-width="0.75" stroke-miterlimit="10" stroke-linecap="round" stroke-linejoin="round"/>
<path d="M794.763 207.833C794.763 207.833 799.979 213.157 797.125 215.193C793.952 217.458 793.45 220.672 793.45 220.672C793.45 220.672 793.514 219.54 792.101 217.467C790.687 215.394 787.605 208.034 794.763 207.833Z" fill="#43302D"/>
<path d="M766.204 264.693C766.204 264.693 755.873 284.26 755.645 290.269C755.417 296.277 762.028 294.935 765.447 289.52C768.867 284.096 774.338 268.719 774.338 268.719L766.204 264.693Z" fill="#BC8567"/>
<path d="M839.873 282.598C839.873 282.598 824.472 271.185 823.596 270.536C822.11 269.422 819.94 267.806 819.156 267.258C817.915 266.391 810.666 265.131 809.654 265.295C808.651 265.459 805.87 265.934 805.058 266.235C804.247 266.537 805.268 267.578 806.07 268.071C806.873 268.564 810.429 270.408 813.447 270.965C815.125 271.276 816.566 272.125 817.742 272.974C818.681 273.65 834.931 290.241 835.542 290.643L839.873 282.598Z" fill="#BC8567"/>
<path d="M820.806 268.592C820.806 268.592 815.007 263.159 814.14 263.241C813.283 263.323 813.894 264.547 816.174 266.4C816.949 267.03 817.779 268.025 818.472 268.354C819.83 268.993 820.806 268.592 820.806 268.592Z" fill="#BC8567"/>
<path d="M816.133 288.165L816.135 288.165C816.648 288.106 817.072 287.736 817.204 287.23L817.204 287.23L822.255 267.781C822.477 266.926 821.765 266.107 820.884 266.212C820.883 266.212 820.883 266.212 820.883 266.212L799.738 268.741L799.735 268.741L799.735 268.741C799.223 268.8 798.798 269.17 798.667 269.676L798.667 269.676L793.615 289.125C793.394 289.98 794.105 290.799 794.987 290.695L816.133 288.165ZM816.133 288.165L794.987 290.694L816.133 288.165Z" fill="#04D361" stroke="#04D361"/>
<path d="M817.132 289.31L795.986 291.839C794.755 291.985 793.761 290.844 794.071 289.648L799.123 270.199C799.305 269.495 799.898 268.975 800.618 268.893L821.764 266.363C822.995 266.217 823.989 267.359 823.679 268.555L818.627 288.004C818.445 288.698 817.852 289.219 817.132 289.31Z" fill="white"/>
<path d="M800.863 274.108L800.863 274.108L800.862 274.113C800.861 274.117 800.857 274.126 800.845 274.136C800.833 274.147 800.818 274.155 800.8 274.159L799.794 274.276L799.794 274.276C799.773 274.278 799.754 274.272 799.739 274.254C799.723 274.236 799.719 274.217 799.724 274.196L799.724 274.195L800.718 270.379L800.718 270.379L800.721 270.37C800.725 270.351 800.742 270.333 800.768 270.33L801.787 270.211L801.787 270.211C801.808 270.209 801.827 270.216 801.842 270.234C801.858 270.251 801.862 270.271 801.857 270.291L801.857 270.292L800.863 274.108Z" fill="#04D361" stroke="#04D361"/>
<path d="M759.593 284.48C766.049 284.735 786.228 284.315 788.9 283.402C790.049 283.01 792.876 282.416 793.596 281.293C794.326 280.152 794.946 278.417 795.703 278.289C796.286 278.188 796.149 280.069 795.976 280.754C795.648 281.987 795.429 282.626 794.991 283.192C794.845 283.384 799.815 284.096 802.934 283.302C805.076 282.754 804.675 284.471 803.235 285.192C803.235 285.192 803.809 286.689 802.295 287.182C802.295 287.182 802.56 288.844 801.101 288.972C800.946 289.383 800.49 290.123 799.231 290.479C797.408 290.99 794.244 290.981 791.836 291.081C790.414 291.136 762.921 295.437 758.061 294.213C756.037 293.702 757.496 284.397 759.593 284.48Z" fill="#BC8567"/>
<path d="M778.122 267.322C778.122 267.322 777.648 269.121 776.946 270.975C776.161 273.02 775.095 275.12 774.046 274.929C774.046 274.929 759.785 270.418 760.259 268.957C760.614 267.87 761.225 266.455 761.982 264.884C764.344 259.972 768.092 253.562 769.605 251.078C774.766 242.595 776.882 243.673 776.882 243.673C784.113 243.326 778.122 267.322 778.122 267.322Z" fill="#6842C2"/>
<path d="M776.946 270.975C776.161 273.02 775.095 275.12 774.046 274.929C774.046 274.929 759.785 270.418 760.259 268.957C760.614 267.87 761.225 266.455 761.982 264.884C764.608 266.126 771.693 269.386 776.946 270.975Z" fill="#04D361"/>
<path d="M781.469 310.96C781.469 310.96 805.177 307.152 817.943 299.546C817.943 299.546 803.663 313.854 781.469 310.96Z" fill="#47248F"/>
<path d="M1077.15 401.439H1015.5C1012.46 401.439 1010.01 398.974 1010.01 395.943V366.111C1010.01 363.071 1012.47 360.615 1015.5 360.615H1077.15C1080.18 360.615 1082.64 363.08 1082.64 366.111V395.933C1082.65 398.974 1080.18 401.439 1077.15 401.439Z" fill="#6842C2"/>
<path d="M1016.55 390.893C1022.29 390.893 1022.29 384.045 1028.03 384.045C1033.78 384.045 1033.78 374.914 1039.52 374.914C1045.27 374.914 1045.27 378.411 1051.01 378.411C1056.76 378.411 1056.76 369.965 1062.5 369.965C1068.25 369.965 1068.25 383.214 1073.99 383.214" stroke="white" stroke-width="2" stroke-miterlimit="10" stroke-linecap="round" stroke-linejoin="round"/>
<path d="M1018.22 390.893C1018.22 389.971 1017.48 389.222 1016.55 389.222C1015.63 389.222 1014.89 389.971 1014.89 390.893C1014.89 391.815 1015.63 392.564 1016.55 392.564C1017.48 392.564 1018.22 391.815 1018.22 390.893Z" fill="white"/>
<path d="M1075.67 383.223C1075.67 382.301 1074.92 381.552 1074 381.552C1073.08 381.552 1072.33 382.301 1072.33 383.223C1072.33 384.145 1073.08 384.893 1074 384.893C1074.92 384.893 1075.67 384.145 1075.67 383.223Z" fill="white"/>
<path d="M720.62 186.047H782.198C786.32 186.047 789.666 182.696 789.666 178.568V159.749C789.666 155.622 786.32 152.271 782.198 152.271H720.62C716.499 152.271 713.152 155.622 713.152 159.749V178.568C713.152 182.705 716.499 186.047 720.62 186.047Z" fill="#6842C2"/>
<path d="M780.493 184.111V192.311L771.712 183.527L780.493 184.111Z" fill="#6842C2"/>
<path d="M720.228 160.562H737.298" stroke="white" stroke-width="2.2165" stroke-miterlimit="10" stroke-linecap="round" stroke-linejoin="round"/>
<path d="M743.38 160.562H782.59" stroke="white" stroke-width="2.2165" stroke-miterlimit="10" stroke-linecap="round" stroke-linejoin="round"/>
<path d="M720.228 169.163H752.052" stroke="white" stroke-width="2.2165" stroke-miterlimit="10" stroke-linecap="round" stroke-linejoin="round"/>
<path d="M756.921 169.163H766.341" stroke="white" stroke-width="2.2165" stroke-miterlimit="10" stroke-linecap="round" stroke-linejoin="round"/>
<path d="M771.393 169.163H782.59" stroke="white" stroke-width="2.2165" stroke-miterlimit="10" stroke-linecap="round" stroke-linejoin="round"/>
<path d="M720.228 177.756H727.432" stroke="white" stroke-width="2.2165" stroke-miterlimit="10" stroke-linecap="round" stroke-linejoin="round"/>
<path d="M731.845 177.756H757.833" stroke="white" stroke-width="2.2165" stroke-miterlimit="10" stroke-linecap="round" stroke-linejoin="round"/>
<path d="M1103.89 155.551H1088.09C1085.15 155.551 1082.77 153.168 1082.77 150.228V134.404C1082.77 131.464 1085.15 129.08 1088.09 129.08H1103.89C1106.83 129.08 1109.21 131.464 1109.21 134.404V150.228C1109.21 153.168 1106.83 155.551 1103.89 155.551Z" fill="#6842C2"/>
<path d="M1104.99 140.95L1104.59 139.215C1104.52 138.877 1104.17 138.667 1103.84 138.74L1102.82 138.978C1102.55 139.042 1102.29 138.914 1102.14 138.686C1101.74 138.056 1101.25 137.489 1100.68 137.015C1100.45 136.823 1100.38 136.512 1100.51 136.248L1101.02 135.198C1101.17 134.887 1101.04 134.504 1100.73 134.358L1099.12 133.581C1098.81 133.426 1098.43 133.563 1098.28 133.874L1097.74 135.015C1097.62 135.271 1097.34 135.398 1097.06 135.362C1096.72 135.316 1096.37 135.289 1096.02 135.289C1095.67 135.289 1095.32 135.316 1094.98 135.362C1094.7 135.398 1094.43 135.271 1094.31 135.015L1093.76 133.874C1093.61 133.563 1093.23 133.426 1092.92 133.581L1091.32 134.358C1091.01 134.513 1090.87 134.887 1091.03 135.198L1091.54 136.248C1091.66 136.512 1091.58 136.823 1091.36 137.015C1090.8 137.499 1090.3 138.056 1089.9 138.686C1089.76 138.914 1089.49 139.042 1089.23 138.978L1088.21 138.74C1087.87 138.667 1087.53 138.877 1087.45 139.215L1087.06 140.95C1086.99 141.288 1087.2 141.626 1087.53 141.708L1088.83 142C1088.82 142.183 1088.8 142.356 1088.8 142.539C1088.8 143.406 1088.96 144.246 1089.24 145.013C1089.33 145.269 1089.27 145.561 1089.05 145.735L1088.54 146.137C1088.27 146.356 1088.23 146.748 1088.44 147.022L1089.5 148.419C1089.72 148.693 1090.11 148.739 1090.39 148.52L1090.73 148.237C1090.97 148.054 1091.3 148.063 1091.53 148.246C1092.26 148.812 1093.09 149.25 1094 149.515C1094.27 149.597 1094.47 149.835 1094.47 150.127V150.492C1094.47 150.839 1094.75 151.122 1095.1 151.122H1096.88C1097.23 151.122 1097.51 150.839 1097.51 150.492V150.127C1097.51 149.835 1097.71 149.597 1097.98 149.515C1098.89 149.25 1099.72 148.821 1100.45 148.246C1100.69 148.063 1101.02 148.045 1101.25 148.237L1101.59 148.52C1101.87 148.739 1102.26 148.693 1102.48 148.419L1103.59 147.031C1103.81 146.757 1103.76 146.365 1103.49 146.146L1102.99 145.744C1102.77 145.57 1102.71 145.278 1102.8 145.023C1103.08 144.246 1103.23 143.416 1103.23 142.548C1103.23 142.365 1103.22 142.192 1103.21 142.009L1104.5 141.717C1104.85 141.626 1105.06 141.288 1104.99 140.95ZM1095.99 147.05C1093.51 147.05 1091.49 145.032 1091.49 142.539C1091.49 140.046 1093.51 138.028 1095.99 138.028C1098.48 138.028 1100.5 140.046 1100.5 142.539C1100.5 145.032 1098.48 147.05 1095.99 147.05Z" fill="white"/>
<path d="M1244.14 260.35C1245.76 250.369 1238.99 240.966 1229.03 239.348C1219.06 237.73 1209.67 244.509 1208.05 254.489C1206.43 264.469 1213.2 273.872 1223.16 275.49C1233.13 277.109 1242.52 270.33 1244.14 260.35Z" fill="#6842C2"/>
<path d="M1236.1 259.823C1237.41 254.292 1233.99 248.751 1228.46 247.446C1222.94 246.141 1217.4 249.567 1216.1 255.097C1214.79 260.628 1218.21 266.17 1223.74 267.475C1229.26 268.78 1234.8 265.354 1236.1 259.823Z" fill="#6842C2" stroke="white" stroke-width="2" stroke-miterlimit="10" stroke-linecap="round" stroke-linejoin="round"/>
<path d="M1226.08 250.695V257.424L1222.53 260.976" fill="#6842C2"/>
<path d="M1226.08 250.695V257.424L1222.53 260.976" stroke="white" stroke-width="2" stroke-miterlimit="10" stroke-linecap="round" stroke-linejoin="round"/>
<path d="M1226.08 247.134V248.12" stroke="white" stroke-width="2" stroke-miterlimit="10" stroke-linecap="round" stroke-linejoin="round"/>
<path d="M1226.08 266.738V267.715" stroke="white" stroke-width="2" stroke-miterlimit="10" stroke-linecap="round" stroke-linejoin="round"/>
<path d="M1236.36 257.424H1235.37" stroke="white" stroke-width="2" stroke-miterlimit="10" stroke-linecap="round" stroke-linejoin="round"/>
<path d="M1216.79 257.424H1215.8" stroke="white" stroke-width="2" stroke-miterlimit="10" stroke-linecap="round" stroke-linejoin="round"/>
<path d="M232.759 185.372H180.803C166.978 185.372 160 192.083 160 205.377V276.522C160 278.265 160.936 279.338 162.952 279.338H178.658C180.537 279.338 181.747 278.265 181.747 276.522V273.821C181.747 267.231 184.524 263.64 191.426 262.947H232.759C247.924 262.947 254.772 256.373 254.772 242.007V206.312C254.772 191.946 247.924 185.372 232.759 185.372ZM233.048 235.965C233.048 243.757 231.283 245.363 222.015 245.363H200.001C190.741 245.363 184.829 248.452 181.739 254.494V210.612C181.739 204.57 183.216 202.957 190.596 202.957H222.015C231.283 202.957 233.048 204.57 233.048 212.354V235.965Z" fill="white"/>
<path d="M304.574 224.704C292.628 224.704 287.522 230.745 287.522 240.949V276.788C287.522 278.402 286.715 279.338 284.836 279.338H270.607C268.727 279.338 267.791 278.402 267.791 276.788V211.281C267.791 209.668 268.727 208.725 270.607 208.725H282.553C284.303 208.725 285.239 209.668 285.239 211.281V221.85C287.522 213.13 294.104 208.694 305.784 208.694H310.616C312.358 208.694 313.294 209.638 313.294 211.251V222.155C313.294 223.897 312.358 224.704 310.616 224.704H304.574Z" fill="white"/>
<path d="M397.193 260.14C397.193 273.433 391.288 279.338 377.196 279.338H342.293C328.33 279.338 322.288 273.433 322.288 260.14V227.938C322.288 214.652 328.33 208.74 342.293 208.74H377.196C391.288 208.74 397.193 214.652 397.193 227.938V260.14ZM377.462 233.028C377.462 226.043 376.123 224.704 367.799 224.704H351.819C343.366 224.704 342.019 226.043 342.019 233.028V255.041C342.019 262.019 343.366 263.366 351.819 263.366H367.799C376.123 263.366 377.462 262.019 377.462 255.041V233.028Z" fill="white"/>
<path d="M417.06 224.704H410.341C408.591 224.704 407.655 223.897 407.655 222.155V211.281C407.655 209.668 408.591 208.725 410.341 208.725H417.053V200.004C417.06 186.711 424.038 180 437.864 180H454.376C456.255 180 457.062 180.944 457.062 182.549V193.423C457.062 195.173 456.255 195.972 454.376 195.972H445.655C438.267 195.972 436.791 197.585 436.791 203.626V208.725H454.376C456.255 208.725 457.062 209.668 457.062 211.281V222.155C457.062 223.897 456.255 224.704 454.376 224.704H436.791V276.789C436.791 278.402 435.855 279.338 433.975 279.338H419.746C417.867 279.338 417.06 278.402 417.06 276.789V224.704Z" fill="white"/>
<path d="M471.831 224.704H465.127C463.385 224.704 462.449 223.897 462.449 222.155V211.281C462.449 209.668 463.385 208.725 465.127 208.725H471.846V200.004C471.831 186.711 478.824 180 492.634 180H509.146C511.026 180 511.832 180.944 511.832 182.549V193.423C511.832 195.173 511.026 195.972 509.146 195.972H500.419C493.038 195.972 491.562 197.585 491.562 203.626V208.725H509.146C511.026 208.725 511.832 209.668 511.832 211.281V222.155C511.832 223.897 511.026 224.704 509.146 224.704H491.562V276.789C491.562 278.402 490.618 279.338 488.739 279.338H474.509C472.63 279.338 471.831 278.402 471.831 276.789V224.704Z" fill="white"/>
<path d="M571.831 306.723H542.566C529.417 306.723 523.779 301.625 523.779 289.001V287.662C523.74 287.302 523.782 286.937 523.904 286.596C524.025 286.254 524.221 285.944 524.479 285.689C524.736 285.434 525.047 285.24 525.39 285.122C525.733 285.004 526.097 284.964 526.457 285.006H540.154C542.033 285.006 542.969 285.95 542.969 287.692V288.362C542.969 291.048 544.453 292.121 547.405 292.121H564.32C572.371 292.121 574.387 290.112 574.387 283.264V262.088C571.298 268.129 565.393 271.219 556.125 271.219H542.429C528.466 271.219 522.287 265.314 522.287 252.021V211.281C522.269 210.929 522.327 210.578 522.458 210.251C522.588 209.923 522.788 209.628 523.043 209.385C523.298 209.143 523.602 208.958 523.936 208.844C524.269 208.73 524.623 208.689 524.973 208.725H539.34C541.082 208.725 542.026 209.668 542.026 211.281V246.961C542.026 253.938 543.502 255.285 551.826 255.285H562.03C570.887 255.285 574.38 251.655 574.38 244.275V211.281C574.38 209.668 575.316 208.725 577.066 208.725H591.439C591.783 208.691 592.13 208.735 592.455 208.852C592.78 208.968 593.075 209.156 593.318 209.4C593.562 209.645 593.749 209.94 593.864 210.266C593.98 210.591 594.023 210.938 593.989 211.281V285.379C593.981 299.464 586.463 306.723 571.831 306.723Z" fill="white"/>
<path d="M179.08 344.16C179.08 334.872 165.544 338.904 165.544 332.424C165.544 329.724 167.668 328.32 170.368 328.392C173.428 328.428 175.012 330.336 175.228 332.028H178.828C178.432 328.212 175.3 325.584 170.512 325.584C165.544 325.584 162.196 328.392 162.196 332.532C162.196 341.856 175.768 337.536 175.768 344.304C175.768 346.68 173.896 348.48 170.728 348.48C167.236 348.48 165.76 346.392 165.544 344.304H162.052C162.124 348.444 165.688 351.252 170.728 351.252C176.164 351.252 179.08 347.724 179.08 344.16ZM201.397 331.272H198.121V342.108C198.121 346.356 195.853 348.444 192.469 348.444C189.157 348.444 186.961 346.392 186.961 342.396V331.272H183.721V342.828C183.721 348.48 187.285 351.288 191.821 351.288C194.449 351.288 196.861 350.136 198.121 348.084V351H201.397V331.272ZM205.704 341.064C205.704 347.184 209.772 351.324 215.028 351.324C218.664 351.324 221.22 349.452 222.408 347.328V351H225.72V331.272H222.408V334.872C221.256 332.82 218.736 330.948 215.064 330.948C209.772 330.948 205.704 334.908 205.704 341.064ZM222.408 341.1C222.408 345.744 219.312 348.444 215.712 348.444C212.112 348.444 209.052 345.708 209.052 341.064C209.052 336.42 212.112 333.792 215.712 333.792C219.312 333.792 222.408 336.528 222.408 341.1ZM244.13 334.908V331.272H240.854V360.36H244.13V347.364C245.354 349.38 247.91 351.324 251.51 351.324C256.802 351.324 260.87 347.184 260.87 341.064C260.87 334.908 256.802 330.948 251.51 330.948C247.91 330.948 245.318 332.82 244.13 334.908ZM257.522 341.064C257.522 345.708 254.462 348.444 250.826 348.444C247.262 348.444 244.13 345.744 244.13 341.1C244.13 336.528 247.262 333.792 250.826 333.792C254.462 333.792 257.522 336.42 257.522 341.064ZM265.182 351H268.458V324.36H265.182V351ZM272.818 341.064C272.818 347.184 276.886 351.324 282.142 351.324C285.778 351.324 288.334 349.452 289.522 347.328V351H292.834V331.272H289.522V334.872C288.37 332.82 285.85 330.948 282.178 330.948C276.886 330.948 272.818 334.908 272.818 341.064ZM289.522 341.1C289.522 345.744 286.426 348.444 282.826 348.444C279.226 348.444 276.166 345.708 276.166 341.064C276.166 336.42 279.226 333.792 282.826 333.792C286.426 333.792 289.522 336.528 289.522 341.1ZM298.982 351H302.258V333.972H306.398V331.272H302.258V329.868C302.258 327.312 303.23 326.232 306.182 326.232V323.496C301.142 323.496 298.982 325.476 298.982 329.868V331.272H296.426V333.972H298.982V351ZM328.937 341.1C328.937 334.872 324.581 330.948 318.965 330.948C313.385 330.948 308.993 334.872 308.993 341.1C308.993 347.364 313.241 351.324 318.821 351.324C324.437 351.324 328.937 347.364 328.937 341.1ZM312.341 341.1C312.341 336.132 315.473 333.792 318.929 333.792C322.313 333.792 325.589 336.132 325.589 341.1C325.589 346.104 322.241 348.444 318.821 348.444C315.401 348.444 312.341 346.104 312.341 341.1ZM336.521 340.272C336.521 335.7 338.897 334.296 342.029 334.296H342.893V330.912C339.761 330.912 337.637 332.28 336.521 334.476V331.272H333.245V351H336.521V340.272ZM375.15 351H378.39V339.372C378.39 333.72 374.898 330.912 370.398 330.912C367.374 330.912 364.566 332.46 363.414 335.304C362.118 332.352 359.418 330.912 356.178 330.912C353.586 330.912 351.246 332.028 349.95 334.116V331.272H346.674V351H349.95V340.128C349.95 335.88 352.218 333.756 355.53 333.756C358.77 333.756 360.93 335.808 360.93 339.84V351H364.17V340.128C364.17 335.88 366.438 333.756 369.75 333.756C372.99 333.756 375.15 335.808 375.15 339.84V351ZM382.54 341.064C382.54 347.184 386.608 351.324 391.864 351.324C395.5 351.324 398.056 349.452 399.244 347.328V351H402.556V331.272H399.244V334.872C398.092 332.82 395.572 330.948 391.9 330.948C386.608 330.948 382.54 334.908 382.54 341.064ZM399.244 341.1C399.244 345.744 396.148 348.444 392.548 348.444C388.948 348.444 385.888 345.708 385.888 341.064C385.888 336.42 388.948 333.792 392.548 333.792C396.148 333.792 399.244 336.528 399.244 341.1ZM416.466 341.064C416.466 347.184 420.534 351.324 425.826 351.324C429.426 351.324 431.982 349.488 433.17 347.292V351H436.482V324.36H433.17V334.8C431.802 332.532 428.958 330.948 425.862 330.948C420.534 330.948 416.466 334.908 416.466 341.064ZM433.17 341.1C433.17 345.744 430.074 348.444 426.474 348.444C422.874 348.444 419.814 345.708 419.814 341.064C419.814 336.42 422.874 333.792 426.474 333.792C430.074 333.792 433.17 336.528 433.17 341.1ZM450.406 333.72C453.79 333.72 456.67 335.844 456.634 339.696H444.178C444.538 335.844 447.202 333.72 450.406 333.72ZM459.622 344.916H456.094C455.374 347.04 453.502 348.552 450.55 348.552C447.202 348.552 444.394 346.356 444.142 342.36H459.91C459.982 341.676 460.018 341.1 460.018 340.38C460.018 334.98 456.274 330.948 450.55 330.948C444.79 330.948 440.794 334.872 440.794 341.1C440.794 347.364 444.934 351.324 450.55 351.324C455.446 351.324 458.614 348.516 459.622 344.916ZM171.16 379.72C174.544 379.72 177.424 381.844 177.388 385.696H164.932C165.292 381.844 167.956 379.72 171.16 379.72ZM180.376 390.916H176.848C176.128 393.04 174.256 394.552 171.304 394.552C167.956 394.552 165.148 392.356 164.896 388.36H180.664C180.736 387.676 180.772 387.1 180.772 386.38C180.772 380.98 177.028 376.948 171.304 376.948C165.544 376.948 161.548 380.872 161.548 387.1C161.548 393.364 165.688 397.324 171.304 397.324C176.2 397.324 179.368 394.516 180.376 390.916ZM199.28 391.636C199.136 384.58 187.688 387.136 187.688 382.456C187.688 380.872 189.128 379.72 191.54 379.72C194.168 379.72 195.68 381.16 195.824 383.14H199.1C198.884 379.288 196.004 376.948 191.648 376.948C187.256 376.948 184.412 379.432 184.412 382.456C184.412 389.8 196.076 387.244 196.076 391.636C196.076 393.256 194.636 394.552 192.044 394.552C189.272 394.552 187.58 393.112 187.4 391.204H184.016C184.232 394.804 187.472 397.324 192.08 397.324C196.436 397.324 199.28 394.876 199.28 391.636ZM204.625 391.6C204.625 395.56 206.605 397 210.097 397H213.049V394.228H210.637C208.621 394.228 207.901 393.544 207.901 391.6V379.972H213.049V377.272H207.901V372.304H204.625V377.272H202.069V379.972H204.625V391.6ZM234.514 377.272H231.238V388.108C231.238 392.356 228.97 394.444 225.586 394.444C222.274 394.444 220.078 392.392 220.078 388.396V377.272H216.838V388.828C216.838 394.48 220.402 397.288 224.938 397.288C227.566 397.288 229.978 396.136 231.238 394.084V397H234.514V377.272ZM238.821 387.064C238.821 393.184 242.889 397.324 248.181 397.324C251.781 397.324 254.337 395.488 255.525 393.292V397H258.837V370.36H255.525V380.8C254.157 378.532 251.313 376.948 248.217 376.948C242.889 376.948 238.821 380.908 238.821 387.064ZM255.525 387.1C255.525 391.744 252.429 394.444 248.829 394.444C245.229 394.444 242.169 391.708 242.169 387.064C242.169 382.42 245.229 379.792 248.829 379.792C252.429 379.792 255.525 382.528 255.525 387.1ZM283.094 387.1C283.094 380.872 278.738 376.948 273.122 376.948C267.542 376.948 263.15 380.872 263.15 387.1C263.15 393.364 267.398 397.324 272.978 397.324C278.594 397.324 283.094 393.364 283.094 387.1ZM266.498 387.1C266.498 382.132 269.63 379.792 273.086 379.792C276.47 379.792 279.746 382.132 279.746 387.1C279.746 392.104 276.398 394.444 272.978 394.444C269.558 394.444 266.498 392.104 266.498 387.1ZM301.585 391.636C301.441 384.58 289.993 387.136 289.993 382.456C289.993 380.872 291.433 379.72 293.845 379.72C296.473 379.72 297.985 381.16 298.129 383.14H301.405C301.189 379.288 298.309 376.948 293.953 376.948C289.561 376.948 286.717 379.432 286.717 382.456C286.717 389.8 298.381 387.244 298.381 391.636C298.381 393.256 296.941 394.552 294.349 394.552C291.577 394.552 289.885 393.112 289.705 391.204H286.321C286.537 394.804 289.777 397.324 294.385 397.324C298.741 397.324 301.585 394.876 301.585 391.636ZM334.527 387.1C334.527 380.872 330.171 376.948 324.555 376.948C318.975 376.948 314.583 380.872 314.583 387.1C314.583 393.364 318.831 397.324 324.411 397.324C330.027 397.324 334.527 393.364 334.527 387.1ZM317.931 387.1C317.931 382.132 321.063 379.792 324.519 379.792C327.903 379.792 331.179 382.132 331.179 387.1C331.179 392.104 327.831 394.444 324.411 394.444C320.991 394.444 317.931 392.104 317.931 387.1ZM353.271 397H356.511V385.372C356.511 379.72 353.019 376.912 348.447 376.912C345.783 376.912 343.407 378.028 342.111 380.08V377.272H338.835V397H342.111V386.092C342.111 381.844 344.415 379.756 347.763 379.756C351.075 379.756 353.271 381.808 353.271 385.84V397ZM361.862 397H365.138V370.36H361.862V397ZM370.721 397H373.997V377.272H370.721V397ZM372.413 374.068C373.601 374.068 374.573 373.096 374.573 371.836C374.573 370.576 373.601 369.604 372.413 369.604C371.153 369.604 370.181 370.576 370.181 371.836C370.181 373.096 371.153 374.068 372.413 374.068ZM394.017 397H397.257V385.372C397.257 379.72 393.765 376.912 389.193 376.912C386.529 376.912 384.153 378.028 382.857 380.08V377.272H379.581V397H382.857V386.092C382.857 381.844 385.161 379.756 388.509 379.756C391.821 379.756 394.017 381.808 394.017 385.84V397ZM410.996 379.72C414.38 379.72 417.26 381.844 417.224 385.696H404.768C405.128 381.844 407.792 379.72 410.996 379.72ZM420.212 390.916H416.684C415.964 393.04 414.092 394.552 411.14 394.552C407.792 394.552 404.984 392.356 404.732 388.36H420.5C420.572 387.676 420.608 387.1 420.608 386.38C420.608 380.98 416.864 376.948 411.14 376.948C405.38 376.948 401.384 380.872 401.384 387.1C401.384 393.364 405.524 397.324 411.14 397.324C416.036 397.324 419.204 394.516 420.212 390.916ZM428.136 394.984C428.136 393.724 427.164 392.752 425.976 392.752C424.716 392.752 423.744 393.724 423.744 394.984C423.744 396.244 424.716 397.216 425.976 397.216C427.164 397.216 428.136 396.244 428.136 394.984Z" fill="#D4C2FF"/>
</svg>
